<svg version="1.1" id="Layer_1" xmlns="http://www.w3.org/2000/svg" xmlns:xlink="http://www.w3.org/1999/xlink" x="0px" y="0px"
	 width="100%" viewBox="0 0 735 702" enable-background="new 0 0 735 702" xml:space="preserve">
<path fill="#000000" opacity="1.000000" stroke="none" 
	d="
M482.000000,703.000000 
	C321.333344,703.000000 161.166672,703.000000 1.000000,703.000000 
	C1.000000,469.000000 1.000000,235.000000 1.000000,1.000000 
	C246.000000,1.000000 491.000000,1.000000 736.000000,1.000000 
	C736.000000,235.000000 736.000000,469.000000 736.000000,703.000000 
	C651.500000,703.000000 567.000000,703.000000 482.000000,703.000000 
M383.000000,442.998779 
	C383.000000,442.998779 383.257324,442.748260 383.121124,443.454010 
	C384.111908,444.285126 385.102692,445.116272 386.527069,446.193176 
	C386.788849,446.426605 386.934692,446.718048 386.895935,447.811310 
	C388.031647,448.780334 389.167358,449.749390 390.000885,450.991943 
	C390.000885,450.991943 390.309143,450.725861 390.085205,451.500793 
	C390.477417,455.587708 393.539917,455.897919 396.593933,455.910156 
	C410.490112,455.965729 424.386810,455.978638 438.282867,455.910614 
	C443.865509,455.883301 445.288483,454.251648 445.432465,447.851349 
	C445.629517,447.570740 445.826538,447.290100 446.760986,446.931946 
	C447.343079,445.097382 447.925201,443.262787 448.571228,440.915649 
	C448.742950,440.621216 448.914673,440.326782 449.783295,439.948486 
	C452.225342,435.285614 453.842834,429.835632 457.336151,426.176331 
	C460.992615,422.346039 462.036804,418.406036 462.295258,413.669220 
	C462.323792,413.146362 462.996765,412.567383 463.497192,412.175934 
	C467.580811,408.981598 468.239532,404.984680 466.424377,399.846375 
	C466.613647,399.563171 466.802948,399.279999 467.738495,398.958588 
	C469.153900,397.688690 471.361786,396.653992 471.822723,395.100861 
	C472.839996,391.673401 472.977051,387.984650 473.521332,383.892059 
	C473.684998,383.596283 473.848663,383.300507 474.750610,382.860504 
	C474.901581,382.014587 475.052582,381.168671 475.324310,379.711487 
	C475.609955,379.161224 475.895569,378.610931 476.893311,377.909149 
	C477.330566,376.377899 477.767853,374.846680 478.367035,372.715515 
	C478.655975,372.168152 478.944946,371.620789 479.921600,370.883789 
	C480.079315,370.047211 480.237030,369.210632 480.464569,367.865631 
	C480.639648,367.575714 480.814697,367.285828 481.723999,366.893188 
	C482.270142,365.052124 482.816315,363.211060 483.467194,360.866974 
	C483.650604,360.580292 483.834045,360.293610 484.709625,359.944122 
	C488.430695,353.144348 492.329529,346.433746 495.803528,339.509979 
	C497.760712,335.609253 497.918579,330.109375 500.834534,327.540924 
	C505.845459,323.127197 504.052704,318.253448 504.312225,312.973602 
	C504.312225,312.973602 504.565338,312.694672 505.253662,312.824554 
	C505.514313,311.885376 505.774933,310.946198 506.046417,309.356750 
	C506.410034,308.587708 506.773682,307.818665 507.832062,306.960052 
	C509.306641,303.081726 510.781219,299.203430 512.385742,294.716888 
	C512.678162,294.172241 512.970581,293.627594 513.933167,292.946411 
	C515.395630,289.082886 516.858154,285.219391 518.518066,280.765625 
	C518.799255,280.213074 519.080444,279.660553 520.029785,278.978973 
	C521.780090,275.778717 523.578430,272.603546 525.266113,269.370575 
	C526.717651,266.589966 527.997070,263.719788 529.436890,260.932739 
	C530.900879,258.098999 532.744751,255.429108 533.920044,252.486877 
	C535.406433,248.765961 536.092896,244.720123 537.636047,241.028290 
	C543.000305,228.194916 548.595154,215.458084 554.080994,202.675385 
	C555.806091,198.655746 554.863586,197.091080 550.426819,197.079285 
	C533.442749,197.034134 516.458069,197.057388 499.474731,197.192917 
	C498.306244,197.202225 497.146729,198.341843 495.765808,199.221939 
	C495.765808,199.221939 495.431183,199.299713 494.631958,199.211609 
	C494.303131,200.023102 493.974335,200.834579 493.528412,202.256256 
	C493.244965,202.805542 492.961548,203.354828 492.008881,204.087189 
	C491.419952,205.834549 490.831024,207.581909 490.125916,209.974762 
	C489.673035,210.962753 489.220154,211.950729 488.214142,212.985519 
	C488.114319,213.651138 488.014526,214.316757 487.873352,215.665802 
	C487.139496,217.084900 486.405640,218.504013 485.003265,220.130386 
	C484.831024,220.962540 484.658783,221.794693 484.331879,223.225449 
	C483.902283,224.155029 483.472656,225.084625 482.275513,226.141891 
	C482.113007,227.008026 481.950500,227.874176 481.709106,229.346634 
	C481.431183,229.886185 481.153259,230.425735 480.141724,231.135254 
	C480.004028,231.994354 479.866333,232.853455 479.744843,234.069702 
	C479.744843,234.069702 479.541260,234.363617 478.722961,234.181152 
	C474.769775,234.079971 474.556183,236.966995 474.041412,239.805389 
	C473.806732,241.099503 473.218506,242.523209 472.340240,243.470642 
	C469.688782,246.330811 468.414093,252.398514 470.146973,255.638519 
	C469.895294,256.169434 469.643616,256.700348 468.606598,257.141235 
	C463.408356,259.573303 460.920837,265.895172 462.183472,273.921936 
	C462.015472,274.255768 461.847473,274.589630 461.052307,275.071442 
	C460.363586,277.046692 459.674866,279.021973 458.955200,281.676910 
	C458.293488,283.114899 457.631775,284.552856 456.237427,286.126709 
	C455.914215,287.221252 455.591003,288.315826 455.174316,290.051361 
	C454.691681,291.011688 454.209045,291.971985 453.050201,293.090149 
	C452.206879,295.608093 451.363556,298.126038 450.346130,301.236664 
	C449.880798,302.152832 449.415436,303.069000 448.378326,304.042999 
	C448.261658,304.697296 448.144989,305.351593 447.994293,306.688141 
	C447.302094,308.117126 446.609924,309.546112 445.202667,311.000641 
	C442.395111,311.614441 442.627563,313.136627 443.993652,315.587891 
	C443.755524,316.110809 443.517395,316.633728 442.516357,317.128540 
	C441.141205,317.962128 439.056519,318.473846 438.508209,319.682526 
	C435.391785,326.552429 432.545685,333.552490 429.886871,340.613403 
	C429.543854,341.524323 430.817108,343.043823 431.108124,345.005432 
	C430.778229,345.688446 430.448303,346.371429 429.337891,347.046753 
	C428.229279,348.033264 427.120697,349.019775 425.656891,350.262756 
	C425.659546,350.571228 425.662231,350.879669 425.664886,351.188141 
	C425.772064,350.786835 425.879211,350.385529 426.934753,349.962555 
	C427.562775,350.037872 428.190826,350.113159 428.633087,350.931305 
	C427.377319,353.604828 426.121582,356.278320 424.264282,358.991608 
	C422.996735,359.918732 421.729156,360.845886 420.461609,361.773010 
	C421.374573,362.156555 422.287567,362.540100 423.069244,363.649902 
	C421.954529,366.071655 420.839813,368.493378 419.035370,371.112915 
	C418.916321,371.953522 418.797272,372.794128 418.472687,374.288208 
	C415.932983,379.912537 413.393311,385.536896 410.679871,391.545990 
	C409.295959,390.426544 408.728760,390.084839 408.309845,389.611786 
	C398.394562,378.414398 388.441223,367.249939 378.615417,355.974365 
	C373.563599,350.177155 368.744354,344.177277 363.940033,337.499329 
	C361.910767,334.466278 359.904968,331.417206 357.843689,328.406097 
	C356.549316,326.515289 354.783691,324.844910 353.916687,322.786224 
	C352.379242,319.135498 349.287231,317.523041 346.602051,319.437897 
	C346.602051,319.437897 346.513824,319.375000 346.751770,318.667206 
	C345.448181,317.477356 344.144562,316.287537 342.338501,314.859406 
	C341.843567,314.315796 341.348633,313.772186 340.743103,312.715027 
	C340.488403,312.478729 340.233734,312.242432 339.710693,311.391296 
	C337.101379,308.440002 334.604767,305.377960 331.847473,302.572052 
	C329.597534,300.282471 327.193756,299.944489 324.620911,302.910522 
	C323.789276,303.013397 322.795135,302.857239 322.152130,303.260712 
	C317.582611,306.127838 316.679443,311.567291 315.441132,315.829895 
	C313.398376,322.861542 311.280457,329.533539 305.822357,335.575836 
	C307.981110,336.170258 309.488953,336.585449 311.018402,337.754700 
	C310.135864,340.408203 309.253326,343.061707 307.901703,346.210999 
	C306.918091,348.102844 305.934479,349.994720 304.322388,351.982452 
	C303.812805,353.995392 303.303253,356.008362 302.793701,358.021301 
	C304.596527,357.977234 306.399353,357.933167 308.657440,358.048004 
	C308.932404,358.264221 309.062714,358.547058 308.728149,359.532104 
	C307.902100,361.312683 307.076050,363.093231 306.170410,365.045410 
	C310.559326,368.973999 319.660492,369.189697 316.986206,377.869995 
	C319.634583,379.106720 323.010712,379.668823 324.431885,381.640198 
	C325.778839,383.508575 325.076660,386.854218 325.294525,389.806396 
	C328.545624,389.576355 332.179840,389.319183 336.385559,389.172943 
	C336.808533,389.797394 337.231476,390.421875 336.914886,391.184570 
	C336.624298,392.548279 335.941559,393.971161 336.136200,395.261688 
	C336.418823,397.135345 337.334717,398.913483 337.980530,400.732361 
	C339.309814,399.221252 340.639099,397.710175 342.554047,396.422302 
	C343.776917,397.465912 344.999817,398.509521 346.341705,400.181396 
	C346.938080,400.770630 347.534424,401.359894 348.171265,402.585815 
	C349.226562,403.898712 350.281860,405.211609 351.148224,407.248871 
	C352.457184,408.485107 353.766144,409.721375 355.503143,411.164459 
	C355.771271,411.358276 355.949402,411.614624 356.003204,412.707214 
	C356.460876,417.114990 355.757751,422.045197 361.990417,423.421722 
	C363.262054,423.702606 364.726013,425.483429 365.142365,426.862305 
	C367.108002,433.372009 373.514099,433.934692 378.623901,437.221649 
	C379.536804,438.311890 380.449707,439.402161 381.194122,441.225159 
	C381.882843,441.734009 382.571594,442.242828 383.000000,442.998779 
M283.062897,210.822388 
	C282.905853,212.428589 282.748840,214.034775 282.534821,216.269440 
	C282.029144,217.181870 281.523499,218.094315 280.225525,219.139343 
	C280.078339,220.318878 279.931152,221.498428 279.600433,223.387833 
	C279.297668,224.536835 278.994934,225.685852 278.311218,226.894119 
	C278.311218,226.894119 277.933075,226.969269 277.187958,227.060318 
	C277.000641,227.920517 276.813293,228.780731 276.537628,230.147583 
	C276.344147,230.426407 276.150635,230.705231 275.380676,231.002243 
	C275.268585,231.670959 275.156464,232.339691 274.946289,233.687851 
	C274.288818,235.122040 273.631348,236.556229 272.246918,238.155914 
	C272.083588,238.993622 271.920258,239.831314 271.579468,241.264771 
	C271.301666,241.817276 271.023834,242.369797 270.091614,243.047623 
	C269.058105,245.697906 268.024628,248.348175 266.992981,251.646378 
	C266.651123,252.426712 266.309265,253.207062 265.278870,254.018661 
	C260.786285,255.904266 261.222015,259.630066 261.796631,263.630310 
	C261.796631,263.630310 261.702393,263.841431 260.992401,263.495422 
	C260.055267,264.175995 258.682037,264.653748 258.255096,265.571625 
	C256.201294,269.987000 254.331238,274.492828 252.541672,279.024078 
	C251.518967,281.613617 250.878662,284.353180 249.876114,286.951874 
	C248.897797,289.487793 248.308029,293.267670 246.438660,294.148956 
	C241.872360,296.301575 243.716949,298.200684 245.531570,301.124451 
	C245.358536,301.417877 245.185486,301.711334 244.267517,302.122711 
	C243.961105,303.231842 243.654694,304.340973 243.218002,306.109924 
	C242.453537,307.730835 241.689056,309.351746 240.213165,311.061523 
	C239.375519,313.598236 238.537888,316.134949 237.531219,319.267456 
	C237.261841,319.822235 236.992477,320.376984 236.063156,321.085785 
	C233.949753,325.318665 231.791077,329.529663 229.733200,333.789368 
	C226.313522,340.867889 220.212479,346.427643 218.534744,354.552338 
	C217.592438,359.115509 215.614136,363.464783 214.010223,367.995789 
	C214.010223,367.995789 213.924561,368.087891 213.420746,368.522247 
	C213.708511,370.262695 207.962021,372.161621 213.471954,374.519867 
	C212.932343,375.663971 212.392715,376.808075 211.147461,378.129883 
	C210.975845,378.966248 210.804230,379.802612 210.558517,381.262238 
	C210.268387,381.810181 209.978256,382.358093 208.958572,383.057007 
	C208.539154,384.588867 208.119751,386.120697 207.580948,388.326935 
	C206.647278,390.194885 205.713608,392.062866 204.104111,394.061249 
	C202.621368,397.924225 201.138626,401.787201 199.545944,406.316681 
	C198.911942,407.511383 198.277954,408.706116 196.995361,410.074860 
	C193.626129,419.337769 185.846252,426.404419 183.968765,436.474731 
	C183.608353,438.407898 180.999191,439.919617 180.632324,441.854248 
	C180.143021,444.434723 175.211578,447.091187 180.114212,450.646301 
	C180.429504,451.721954 180.744781,452.797638 181.140427,454.688385 
	C182.644867,455.094849 184.137650,455.791168 185.655960,455.852112 
	C189.813110,456.018982 193.980988,455.925385 198.144623,455.922424 
	C209.550095,455.914337 220.958771,456.032104 232.357910,455.757385 
	C234.253174,455.711731 236.106979,453.944611 237.999390,453.001068 
	C237.999390,453.001068 237.972717,452.978943 238.680588,453.003693 
	C240.598770,450.011108 242.934814,447.202118 244.347229,443.987305 
	C247.194626,437.506317 249.539963,430.804718 252.054962,424.179901 
	C252.059113,424.168976 251.504211,423.945770 251.371078,423.088806 
	C251.744476,422.442871 252.117874,421.796906 253.241211,421.039795 
	C253.641968,419.494263 254.042725,417.948761 254.545654,415.792175 
	C254.788712,415.225220 255.031754,414.658295 255.976395,413.930389 
	C256.426819,412.415771 256.877258,410.901123 257.518829,408.742432 
	C258.100006,407.524139 258.681183,406.305817 259.939484,404.911682 
	C260.128967,404.093079 260.318451,403.274506 260.606415,401.781860 
	C261.201752,400.561096 261.797089,399.340302 263.025543,397.941376 
	C263.725250,396.826019 264.543762,395.767120 265.105072,394.585999 
	C268.355103,387.746979 271.497223,380.856293 274.791595,374.039001 
	C275.508362,372.555786 276.954865,371.414276 277.615295,369.916931 
	C279.084961,366.584839 279.710144,362.747314 281.703156,359.810425 
	C284.640137,355.482574 287.907745,351.596771 287.022095,345.839600 
	C286.841309,344.664398 287.324066,342.802612 288.180756,342.150482 
	C292.609528,338.779266 290.955170,333.619049 292.494720,328.730530 
	C293.073151,327.513031 293.651581,326.295563 294.921844,324.889954 
	C295.060089,324.051056 295.198303,323.212189 295.480316,321.718048 
	C296.068970,320.506836 296.657654,319.295624 297.948212,317.924622 
	C298.396332,316.405365 298.844452,314.886078 299.493011,312.771667 
	C299.786835,312.220032 300.080688,311.668396 301.021576,310.949615 
	C302.775787,306.422791 304.529968,301.895966 306.397675,296.859314 
	C306.578522,296.563660 306.759369,296.268036 307.649353,295.924316 
	C310.160400,290.896027 312.145966,285.499695 315.335297,280.946503 
	C318.321198,276.683746 320.171082,272.563812 319.409058,267.034119 
	C319.409058,267.034119 319.638306,266.746948 320.284576,266.882416 
	C320.738220,267.060577 321.194458,267.232391 321.645111,267.417847 
	C327.118958,269.670044 332.324585,271.845825 334.739349,278.282898 
	C335.551971,280.449127 339.567413,281.413910 342.529053,283.157593 
	C342.774933,283.366669 342.946442,283.625092 343.000946,284.749268 
	C342.998169,287.169769 344.053284,288.269714 346.989685,287.867401 
	C347.166901,287.857147 347.344086,287.846893 347.705444,288.407684 
	C348.425323,289.103149 349.145233,289.798615 349.838440,291.098511 
	C350.560333,292.063568 351.282227,293.028625 351.718842,294.613190 
	C351.641632,295.493866 351.564423,296.374542 351.487213,297.255219 
	C352.475342,297.068359 353.463501,296.881500 354.861725,297.007019 
	C355.080963,297.466583 355.300201,297.926178 355.120789,299.027893 
	C353.735352,301.338104 354.629852,302.088165 356.967926,302.531647 
	C354.442413,308.631348 362.646973,307.533447 362.842285,311.677307 
	C361.841736,312.011841 360.618073,312.420990 358.619965,313.089081 
	C360.281616,313.948090 361.034302,314.688690 361.734802,314.642212 
	C366.246033,314.342896 368.546082,316.649780 370.279541,320.606781 
	C372.052734,324.654419 375.816620,326.079407 380.701263,326.256531 
	C381.333771,327.102051 381.966278,327.947571 381.962677,329.092926 
	C382.757202,329.669647 383.551727,330.246338 384.780853,330.831665 
	C384.780853,330.831665 385.146179,330.596069 385.345459,331.135193 
	C385.785706,331.490021 386.225983,331.844849 386.617401,332.825592 
	C386.786835,333.207275 386.956268,333.588959 386.602631,334.294464 
	C387.403107,334.862396 388.203583,335.430298 389.288300,336.184784 
	C389.288300,336.184784 389.394714,336.507690 389.157867,337.255707 
	C389.344604,339.238861 389.242279,341.313354 389.829132,343.170044 
	C390.168060,344.242401 391.657745,345.691010 392.558807,345.643005 
	C393.509705,345.592377 394.376495,343.963226 395.843933,343.383545 
	C396.226318,343.928192 396.608673,344.472809 396.931915,345.765167 
	C398.633240,347.500732 400.334564,349.236298 402.000000,351.000000 
	C402.000000,351.000000 402.028198,350.963867 401.995667,351.634308 
	C403.823944,354.871033 405.092377,354.093781 406.003662,351.003601 
	C406.003662,351.003601 406.069519,351.046906 406.770752,350.976624 
	C408.943665,345.434265 411.116577,339.891937 413.415741,333.840881 
	C413.627838,333.567871 413.839905,333.294891 414.786316,332.939545 
	C415.354401,331.107056 415.922485,329.274536 416.574219,326.817902 
	C416.830475,326.248749 417.086700,325.679596 417.995911,324.976898 
	C422.603363,318.854309 425.556183,312.056519 426.480499,303.878632 
	C426.678223,303.595886 426.875946,303.313141 427.761719,302.975616 
	C429.277130,300.756470 431.790131,298.407471 427.000000,297.000000 
	C427.000000,297.000000 426.987976,297.014221 427.062592,296.256348 
	C426.244995,295.596161 425.427399,294.935944 424.270111,294.164185 
	C424.270111,294.164185 424.054138,293.879242 424.089447,293.160400 
	C423.046600,292.114563 422.003754,291.068756 420.476837,289.701294 
	C420.005554,289.099243 419.534271,288.497223 419.123627,287.173248 
	C417.259369,285.397675 415.395111,283.622131 413.041351,281.365570 
	C411.245178,279.762970 409.449005,278.160370 407.539429,276.470093 
	C407.539429,276.470093 407.456207,276.353424 407.453766,275.723267 
	C406.600800,274.530212 405.747803,273.337158 405.275146,271.624084 
	C406.244354,269.736603 407.213531,267.849121 408.182739,265.961639 
	C407.740723,265.706573 407.298737,265.451508 406.856750,265.196411 
	C405.494690,266.688263 404.132629,268.180115 402.215393,269.299652 
	C401.294342,268.087646 400.373322,266.875671 399.741943,264.816772 
	C399.357391,260.810699 399.091278,256.786224 398.474030,252.816345 
	C398.368683,252.138901 396.785522,251.265106 395.843079,251.210785 
	C387.571503,250.734039 386.783173,250.078522 385.435120,241.834518 
	C383.341461,241.834518 381.254944,241.834518 378.947357,241.187164 
	C377.553711,240.150955 376.160034,239.114746 374.198944,237.816284 
	C373.151031,236.804443 372.103119,235.792603 371.055054,234.116791 
	C370.552124,233.755905 370.049194,233.395020 369.314178,232.341690 
	C369.250458,232.190353 369.110992,232.023315 369.138519,231.890915 
	C369.198242,231.603165 369.343170,231.333084 370.098846,231.020020 
	C370.553345,230.657990 371.007874,230.295944 371.462372,229.933899 
	C371.270172,229.740234 371.077942,229.546570 370.885742,229.352905 
	C370.407959,229.921600 369.930176,230.490280 369.046814,231.532074 
	C368.490234,231.284424 367.933685,231.036758 367.413116,230.194824 
	C367.252075,229.833939 367.091003,229.473068 367.011902,228.276596 
	C367.192352,222.801056 363.891205,219.460709 360.054718,216.185150 
	C354.879333,211.766464 350.035919,206.959747 345.003174,202.370972 
	C344.764862,202.153702 344.072327,202.434631 343.593781,202.397171 
	C343.593781,202.397171 343.507385,202.397186 343.760406,201.664886 
	C342.363831,197.056152 338.425385,197.173965 334.832764,197.141144 
	C322.503540,197.028519 310.171448,197.209564 297.842773,197.071075 
	C288.850555,196.970062 286.006744,197.538773 282.587158,208.308350 
	C282.728882,208.870102 282.870605,209.431870 283.062897,210.822388 
z"/>
<path fill="#FDFDFD" opacity="1.000000" stroke="none" 
	d="
M349.865112,290.494080 
	C349.145233,289.798615 348.425323,289.103149 347.830414,287.893250 
	C346.111847,284.193085 345.503632,279.825958 340.507690,279.563171 
	C340.475830,279.501587 340.385437,279.396393 340.526825,279.053284 
	C339.999054,278.273590 339.329865,277.836975 338.675934,277.354797 
	C338.691162,277.309265 338.598206,277.333435 338.714111,276.952026 
	C337.516663,275.403656 336.203278,274.236664 334.663635,272.937897 
	C334.150055,272.374847 333.862793,271.943604 333.666748,271.152954 
	C332.866486,270.175171 331.974976,269.556854 331.042816,268.964233 
	C331.002136,268.989960 331.062439,268.914886 331.080811,268.555420 
	C330.036896,267.154938 328.974640,266.113892 327.921875,265.060913 
	C327.931396,265.048950 327.921295,265.084686 327.980591,264.712646 
	C327.391388,260.099518 324.594849,258.248077 320.343414,257.450378 
	C319.761383,259.286591 319.369110,261.056152 318.658386,262.686920 
	C306.788879,289.921722 294.884308,317.141296 282.977509,344.359863 
	C273.654968,365.670929 264.369385,386.998383 254.965881,408.273712 
	C250.698044,417.929626 245.898514,427.359131 241.881012,437.114075 
	C239.119019,443.820557 238.052521,451.525085 228.670044,453.036682 
	C227.892181,453.060944 227.445831,453.023773 226.716156,452.679199 
	C212.057495,452.371796 197.682159,452.371796 182.517715,452.371796 
	C183.345139,449.866699 183.646851,448.622528 184.153656,447.468445 
	C191.601669,430.508148 199.127197,413.581726 206.532684,396.602936 
	C215.128632,376.894653 223.672974,357.163391 232.109726,337.386688 
	C233.302200,334.591431 233.759140,331.482391 234.618866,328.258362 
	C234.861420,327.691925 235.041641,327.385651 235.553818,327.018311 
	C236.225876,326.602844 236.701828,326.307861 236.886444,325.885529 
	C243.757690,310.166718 250.614441,294.441498 257.404572,278.687592 
	C257.676056,278.057648 257.280853,277.140320 257.244507,276.091125 
	C257.495636,275.533844 257.698578,275.242310 258.260681,274.938049 
	C258.898895,274.754822 259.326752,274.650299 259.435638,274.404449 
	C265.901031,259.807831 272.349243,245.203537 278.725525,230.567932 
	C278.874786,230.225388 278.187195,229.518280 277.936707,228.640167 
	C277.966705,227.855850 277.949890,227.412567 277.933075,226.969269 
	C277.933075,226.969269 278.311218,226.894119 278.868469,226.908676 
	C282.919312,219.932404 286.764709,213.087570 289.753052,205.887070 
	C291.177032,202.456085 292.531860,200.773148 296.424133,200.845688 
	C307.570770,201.053452 318.735291,201.213715 329.870239,200.794266 
	C336.473480,200.545532 341.200653,202.323792 345.031128,208.027405 
	C347.308319,211.418167 351.294922,213.660889 354.546448,216.444977 
	C354.579895,216.470200 354.614960,216.546310 354.464905,216.887054 
	C355.180359,217.839050 356.045929,218.450287 356.951355,219.035385 
	C356.991241,219.009247 356.939117,219.089127 356.917145,219.451447 
	C358.298828,221.188919 359.702515,222.564087 361.326416,224.033493 
	C361.826385,224.320099 361.994019,224.583740 361.999512,225.291382 
	C363.758667,227.372437 365.567871,229.080765 367.377106,230.789093 
	C367.933685,231.036758 368.490234,231.284424 369.290009,231.246597 
	C369.533203,230.961121 369.453247,231.055771 369.453247,231.055771 
	C369.343170,231.333084 369.198242,231.603165 369.138519,231.890915 
	C369.110992,232.023315 369.250458,232.190353 369.127563,232.587219 
	C368.831421,233.855240 368.721924,234.877747 368.612427,235.900269 
	C369.426666,235.527100 370.240906,235.153946 371.055176,234.780777 
	C372.103119,235.792603 373.151031,236.804443 374.438721,238.275757 
	C374.841461,239.145355 375.004456,239.555481 374.890198,240.111282 
	C374.781525,240.978943 374.720825,241.904373 375.153534,242.391953 
	C380.419189,248.325394 385.719879,254.229340 391.119415,260.040649 
	C391.882660,260.862122 393.219269,261.150818 394.185364,261.812042 
	C394.080231,261.937958 394.317657,261.711548 394.231628,262.109680 
	C394.447144,263.726074 394.378937,265.271210 395.115753,266.104706 
	C397.958984,269.321075 400.983307,272.391418 404.118500,275.325562 
	C404.882538,276.040619 406.325439,276.030243 407.456207,276.353424 
	C407.456207,276.353424 407.539429,276.470093 407.419983,276.855804 
	C409.231659,279.143127 411.162811,281.044708 413.302490,283.057251 
	C413.774567,283.363068 413.951752,283.618011 414.005127,284.317352 
	C414.123810,285.503784 414.017792,286.529358 414.479523,287.070709 
	C417.008667,290.035706 420.007568,292.658630 422.168152,295.856445 
	C423.377472,297.646301 424.255981,300.666809 423.596466,302.538269 
	C420.701508,310.753571 417.096588,318.715515 413.958923,326.850220 
	C412.961304,329.436615 412.613342,332.273529 411.964020,335.291626 
	C411.692688,336.092133 411.425446,336.596893 410.779968,337.093384 
	C409.534546,339.610382 408.667358,342.135590 407.739746,344.919464 
	C407.473602,345.461884 407.267914,345.745605 406.720825,346.020996 
	C405.368805,346.786713 404.358246,347.560852 403.347717,348.334961 
	C403.916962,347.764557 404.486206,347.194153 405.055481,346.623749 
	C402.148407,344.526764 399.269714,342.387787 396.299103,340.385040 
	C395.920135,340.129547 395.061737,340.585205 394.347717,340.672180 
	C394.269989,340.632996 394.204041,340.471863 394.390350,340.146545 
	C393.716034,339.215607 392.855438,338.609955 391.997406,338.002136 
	C392.000000,338.000000 391.995667,338.005249 392.029968,337.637482 
	C390.264954,335.579681 388.465607,333.889679 386.666229,332.199677 
	C386.225983,331.844849 385.785706,331.490021 385.290649,330.502930 
	C383.518311,327.003632 383.612000,322.435638 378.455261,322.662476 
	C378.381439,322.595856 378.253479,322.443573 378.435974,322.119934 
	C377.179688,319.856384 375.543610,318.028198 374.361725,315.942627 
	C373.336243,314.132965 372.825134,312.031830 371.914001,309.598267 
	C370.629730,309.286469 368.223999,308.702423 365.595093,307.999451 
	C365.066895,307.765259 364.761841,307.649994 364.227478,307.761719 
	C364.152710,307.839325 364.307251,307.689911 364.396179,307.255951 
	C363.868408,306.347351 363.406250,305.723358 362.982239,304.732605 
	C359.258087,298.826141 355.495819,293.286407 351.381714,287.228577 
	C350.854614,288.363525 350.359863,289.428802 349.865112,290.494080 
z"/>
<path fill="#FDFDFD" opacity="1.000000" stroke="none" 
	d="
M348.130768,401.949158 
	C347.534424,401.359894 346.938080,400.770630 346.447998,399.607300 
	C345.027771,395.363617 343.501251,391.694061 341.987244,388.012268 
	C341.999786,388.000061 342.024139,387.975006 342.378113,387.904175 
	C345.220886,384.537354 343.347656,383.019592 340.400177,381.668030 
	C336.493011,379.876312 332.692291,377.852448 328.757050,375.883972 
	C331.108765,373.335052 332.556671,371.765717 334.004578,370.196381 
	C333.734528,369.711823 333.464447,369.227264 333.194366,368.742737 
	C330.461426,369.341400 327.728485,369.940033 323.694977,370.823578 
	C326.174500,373.053101 330.494110,374.407532 325.039551,375.803406 
	C324.143097,374.832916 323.532959,374.001801 322.971680,372.747925 
	C321.342346,368.079407 319.664154,363.833618 317.985931,359.587830 
	C315.234070,358.026581 313.004852,355.889618 311.670715,353.292786 
	C310.560242,351.131409 310.501038,348.429962 310.220581,345.709351 
	C312.961761,339.633972 315.458466,333.816986 318.345673,327.999420 
	C320.296661,327.108948 322.049866,326.433807 323.356506,325.261078 
	C324.396637,324.327606 324.891449,322.786530 325.628357,321.515198 
	C324.353973,321.006714 323.079590,320.498199 321.823425,319.610413 
	C324.230011,314.318268 326.618439,309.405334 329.502197,303.473511 
	C334.193970,308.929199 337.488190,313.267670 341.315552,317.069366 
	C345.253601,320.981049 346.798096,327.415131 353.308990,328.673859 
	C353.319366,328.688477 353.346649,328.711639 353.269714,329.064453 
	C354.504547,330.581970 355.816345,331.746735 357.366821,333.061157 
	C358.098236,333.769379 358.590973,334.327972 359.033875,335.251892 
	C363.149170,341.077789 367.030853,346.785645 371.535187,351.950470 
	C382.843170,364.916534 394.382141,377.683197 405.975128,390.396088 
	C407.379211,391.935852 409.780090,393.628540 411.541901,393.454712 
	C413.036316,393.307281 414.757507,390.768280 415.534668,388.930695 
	C417.761841,383.664673 419.299591,378.104462 421.570892,372.860199 
	C434.062683,344.017731 446.644958,315.214081 459.296814,286.441406 
	C465.014923,273.437378 471.050293,260.573059 476.787872,247.577438 
	C482.846588,233.854614 488.839661,220.099869 494.605408,206.252472 
	C496.317230,202.141281 498.580902,200.586029 503.193726,200.702881 
	C517.017151,201.053024 530.855347,200.823364 544.687744,200.820145 
	C546.291565,200.819763 547.895386,200.820099 550.428589,200.820099 
	C549.122559,204.125046 548.254822,206.574829 547.202637,208.942688 
	C539.508728,226.257812 531.761719,243.549393 524.070801,260.865845 
	C522.338684,264.765717 520.732971,268.722717 519.120239,272.674316 
	C517.039673,277.772125 515.010559,282.890930 512.582642,288.010742 
	C508.515259,290.427856 504.821808,292.833862 508.086365,298.432861 
	C506.393005,302.552399 504.800446,306.338867 503.094849,310.073761 
	C498.826538,319.420441 493.682678,328.465485 490.414856,338.146271 
	C486.249878,350.484772 479.153442,361.437439 475.250854,373.929260 
	C472.193054,383.717194 466.722382,392.751312 461.906830,402.113953 
	C459.871979,402.423248 458.002838,402.341095 456.703308,403.161407 
	C455.270447,404.065826 454.360504,405.798676 453.222839,407.170715 
	C454.645966,407.535095 456.069061,407.899475 457.861572,408.358429 
	C457.916718,408.993408 458.015961,410.135773 457.962402,411.591248 
	C453.201874,422.966461 448.465179,433.977448 444.047394,445.114929 
	C442.171967,449.842926 439.985565,452.531067 434.067322,452.217804 
	C422.482941,451.604614 410.843201,451.999298 399.226929,452.067261 
	C397.484711,452.077484 395.745331,452.577118 393.689636,452.833313 
	C392.352814,452.119476 391.330994,451.422668 390.309143,450.725861 
	C390.309143,450.725861 390.000885,450.991943 390.188171,450.558350 
	C390.267395,449.746399 390.159271,449.368042 390.310760,448.797668 
	C387.442505,444.191620 387.727203,438.046204 381.266846,435.023804 
	C377.540131,433.280273 375.809814,427.269531 372.932983,422.793701 
	C366.182373,425.413330 367.930145,417.286377 365.280823,414.544189 
	C363.382507,414.694977 361.745850,414.824982 360.077332,414.964966 
	C360.045471,414.974976 360.051483,414.908478 360.054535,414.561432 
	C359.669556,411.846893 359.281494,409.479401 358.942444,407.410889 
	C356.640656,405.844818 354.383881,404.122833 351.938782,402.731995 
	C350.867645,402.122650 349.411896,402.189423 348.130768,401.949158 
z"/>
<path fill="#BEBEBE" opacity="1.000000" stroke="none" 
	d="
M462.323669,402.120361 
	C466.722382,392.751312 472.193054,383.717194 475.250854,373.929260 
	C479.153442,361.437439 486.249878,350.484772 490.414856,338.146271 
	C493.682678,328.465485 498.826538,319.420441 503.094849,310.073761 
	C504.800446,306.338867 506.393005,302.552399 508.337830,298.193726 
	C510.078918,294.398956 511.519135,291.199829 512.959351,288.000732 
	C515.010559,282.890930 517.039673,277.772125 519.120239,272.674316 
	C520.732971,268.722717 522.338684,264.765717 524.070801,260.865845 
	C531.761719,243.549393 539.508728,226.257812 547.202637,208.942688 
	C548.254822,206.574829 549.122559,204.125046 550.428589,200.820099 
	C547.895386,200.820099 546.291565,200.819763 544.687744,200.820145 
	C530.855347,200.823364 517.017151,201.053024 503.193726,200.702881 
	C498.580902,200.586029 496.317230,202.141281 494.605408,206.252472 
	C488.839661,220.099869 482.846588,233.854614 476.787872,247.577438 
	C471.050293,260.573059 465.014923,273.437378 459.296814,286.441406 
	C446.644958,315.214081 434.062683,344.017731 421.570892,372.860199 
	C419.299591,378.104462 417.761841,383.664673 415.534668,388.930695 
	C414.757507,390.768280 413.036316,393.307281 411.541901,393.454712 
	C409.780090,393.628540 407.379211,391.935852 405.975128,390.396088 
	C394.382141,377.683197 382.843170,364.916534 371.535187,351.950470 
	C367.030853,346.785645 363.149170,341.077789 359.356476,335.347046 
	C361.092621,336.140930 362.456299,337.204956 363.820007,338.268982 
	C368.744354,344.177277 373.563599,350.177155 378.615417,355.974365 
	C388.441223,367.249939 398.394562,378.414398 408.309845,389.611786 
	C408.728760,390.084839 409.295959,390.426544 410.679871,391.545990 
	C413.393311,385.536896 415.932983,379.912537 418.823944,373.773987 
	C419.358521,372.478210 419.541809,371.696686 419.725098,370.915131 
	C420.839813,368.493378 421.954529,366.071655 423.387024,363.086975 
	C424.091858,361.333344 424.478851,360.142578 424.865845,358.951843 
	C426.121582,356.278320 427.377319,353.604828 428.992432,350.416809 
	C429.607330,348.953033 429.862885,348.003723 430.118408,347.054443 
	C430.448303,346.371429 430.778229,345.688446 431.502899,344.522034 
	C435.691559,335.077942 439.485413,326.117310 443.279266,317.156647 
	C443.517395,316.633728 443.755524,316.110809 444.293152,315.132050 
	C445.034393,313.442535 445.476105,312.208832 445.917755,310.975128 
	C446.609924,309.546112 447.302094,308.117126 448.255493,306.168335 
	C448.661194,305.094086 448.805634,304.539642 448.950073,303.985168 
	C449.415436,303.069000 449.880798,302.152832 450.712769,300.728760 
	C451.961761,297.791351 452.844086,295.361816 453.726410,292.932312 
	C454.209045,291.971985 454.691681,291.011688 455.517151,289.564697 
	C456.230011,288.048950 456.600037,287.019897 456.970032,285.990814 
	C457.631775,284.552856 458.293488,283.114899 459.240845,281.135193 
	C460.244141,278.703461 460.961853,276.813477 461.679504,274.923492 
	C461.847473,274.589630 462.015472,274.255768 462.517090,273.446716 
	C465.031097,267.724731 467.211517,262.477997 469.391937,257.231262 
	C469.643616,256.700348 469.895294,256.169434 470.444214,255.153687 
	C473.674744,247.900436 476.608002,241.132034 479.541260,234.363617 
	C479.541260,234.363617 479.744843,234.069702 479.984741,233.697479 
	C480.441559,232.538589 480.658447,231.751938 480.875336,230.965271 
	C481.153259,230.425735 481.431183,229.886185 482.012115,228.864548 
	C482.557770,227.593048 482.800415,226.803635 483.043030,226.014221 
	C483.472656,225.084625 483.902283,224.155029 484.679047,222.754669 
	C485.241425,221.496964 485.456604,220.710037 485.671814,219.923126 
	C486.405640,218.504013 487.139496,217.084900 488.136322,215.149200 
	C488.521942,214.067993 488.644623,213.503357 488.767273,212.938721 
	C489.220154,211.950729 489.673035,210.962753 490.489380,209.486755 
	C491.461243,207.300537 492.069641,205.602310 492.678101,203.904099 
	C492.961548,203.354828 493.244965,202.805542 493.844910,201.791550 
	C494.584656,200.651138 495.007935,199.975433 495.431213,199.299713 
	C495.431183,199.299713 495.765808,199.221939 496.344543,199.106140 
	C515.527893,198.990356 534.132568,198.990356 553.325439,198.990356 
	C552.662231,201.047546 552.444458,201.987335 552.066162,202.857361 
	C544.262146,220.807755 536.399292,238.732727 528.640564,256.702637 
	C525.436646,264.123199 522.448120,271.636749 519.361633,279.108032 
	C519.080444,279.660553 518.799255,280.213074 518.142700,281.262817 
	C516.265869,285.534302 514.764404,289.308624 513.262939,293.082947 
	C512.970581,293.627594 512.678162,294.172241 512.045654,295.222626 
	C510.182800,299.502106 508.660034,303.275879 507.137299,307.049622 
	C506.773682,307.818665 506.410034,308.587708 505.744995,309.823669 
	C505.150848,311.091949 504.858093,311.893311 504.565338,312.694672 
	C504.565338,312.694672 504.312225,312.973602 504.032196,313.392700 
	C501.384552,319.120636 498.936798,324.395477 496.666565,329.745667 
	C492.396118,339.809814 488.228088,349.917389 484.017456,360.006897 
	C483.834045,360.293610 483.650604,360.580292 483.145416,361.329041 
	C482.212372,363.526031 481.601074,365.260956 480.989777,366.995911 
	C480.814697,367.285828 480.639648,367.575714 480.156067,368.288422 
	C479.643036,369.498596 479.438446,370.285980 479.233887,371.073395 
	C478.944946,371.620789 478.655975,372.168152 478.010071,373.199097 
	C477.162506,375.141998 476.671875,376.601349 476.181213,378.060669 
	C475.895569,378.610931 475.609955,379.161224 475.005615,380.193481 
	C474.462006,381.451874 474.237152,382.228302 474.012299,383.004700 
	C473.848663,383.300507 473.684998,383.596283 473.194031,384.324310 
	C470.908569,389.503326 468.950409,394.250061 466.992249,398.996826 
	C466.802948,399.279999 466.613647,399.563171 466.121704,400.321564 
	C460.241516,413.875275 454.663971,426.953827 449.086426,440.032349 
	C448.914673,440.326782 448.742950,440.621216 448.241364,441.348816 
	C447.282166,443.524445 446.652863,445.266968 446.023560,447.009460 
	C445.826538,447.290100 445.629517,447.570740 445.131683,448.333191 
	C443.679901,452.457306 441.349670,453.914032 437.395599,453.850800 
	C424.494995,453.644470 411.588959,453.794342 398.685577,453.717712 
	C397.123596,453.708466 395.564880,453.152771 394.004639,452.850342 
	C395.745331,452.577118 397.484711,452.077484 399.226929,452.067261 
	C410.843201,451.999298 422.482941,451.604614 434.067322,452.217804 
	C439.985565,452.531067 442.171967,449.842926 444.047394,445.114929 
	C448.465179,433.977448 453.201874,422.966461 458.262207,411.383942 
	C459.917786,407.949158 461.120728,405.034760 462.323669,402.120361 
z"/>
<path fill="#C6C6C6" opacity="1.000000" stroke="none" 
	d="
M229.001556,452.975281 
	C238.052521,451.525085 239.119019,443.820557 241.881012,437.114075 
	C245.898514,427.359131 250.698044,417.929626 254.965881,408.273712 
	C264.369385,386.998383 273.654968,365.670929 282.977509,344.359863 
	C294.884308,317.141296 306.788879,289.921722 318.658386,262.686920 
	C319.369110,261.056152 319.761383,259.286591 320.343414,257.450378 
	C324.594849,258.248077 327.391388,260.099518 327.634277,264.665588 
	C325.684082,263.503693 324.139496,262.016754 322.008484,259.965302 
	C321.002533,262.843506 320.320404,264.795227 319.638306,266.746948 
	C319.638306,266.746948 319.409058,267.034119 319.121155,267.436829 
	C314.868927,277.217163 310.904572,286.594788 306.940216,295.972382 
	C306.759369,296.268036 306.578522,296.563660 306.082092,297.333435 
	C303.969208,302.243958 302.171844,306.680359 300.374512,311.116760 
	C300.080688,311.668396 299.786835,312.220032 299.120178,313.258270 
	C298.246979,315.191376 297.746643,316.637878 297.246338,318.084381 
	C296.657654,319.295624 296.068970,320.506836 295.135376,322.212830 
	C294.603638,323.497772 294.416809,324.287933 294.229980,325.078064 
	C293.651581,326.295563 293.073151,327.513031 292.124146,329.259583 
	C284.760590,345.712250 277.715027,361.613129 270.799316,377.570251 
	C267.856964,384.359344 265.186462,391.266174 262.392395,398.119507 
	C261.797089,399.340302 261.201752,400.561096 260.278992,402.275757 
	C259.721802,403.542267 259.492096,404.314880 259.262360,405.087524 
	C258.681183,406.305817 258.100006,407.524139 257.164368,409.269836 
	C256.298218,411.228638 255.786514,412.659973 255.274796,414.091339 
	C255.031754,414.658295 254.788712,415.225220 254.201813,416.270508 
	C253.402405,418.216217 252.946838,419.683594 252.491287,421.150970 
	C252.117874,421.796906 251.744476,422.442871 251.012848,423.602295 
	C246.427322,433.736847 242.200027,443.357910 237.972717,452.978943 
	C237.972717,452.978943 237.999390,453.001068 237.578308,452.981293 
	C234.438675,452.966095 231.720123,452.970673 229.001556,452.975281 
z"/>
<path fill="#C6C6C6" opacity="1.000000" stroke="none" 
	d="
M234.556488,328.518585 
	C233.759140,331.482391 233.302200,334.591431 232.109726,337.386688 
	C223.672974,357.163391 215.128632,376.894653 206.532684,396.602936 
	C199.127197,413.581726 191.601669,430.508148 184.153656,447.468445 
	C183.646851,448.622528 183.345139,449.866699 182.517715,452.371796 
	C197.682159,452.371796 212.057495,452.371796 226.397766,452.940186 
	C211.261826,453.630127 196.160934,453.751709 181.060059,453.873291 
	C180.744781,452.797638 180.429504,451.721954 180.470337,450.112366 
	C184.641846,440.941345 188.522125,432.332123 192.245911,423.655762 
	C194.187531,419.131836 195.853485,414.489624 197.643951,409.900818 
	C198.277954,408.706116 198.911942,407.511383 199.869171,405.770569 
	C201.721573,401.459900 203.250763,397.695374 204.779938,393.930817 
	C205.713608,392.062866 206.647278,390.194885 207.880524,387.764893 
	C208.682770,385.770599 209.185440,384.338318 209.688126,382.906006 
	C209.978256,382.358093 210.268387,381.810181 210.851257,380.764832 
	C211.380386,379.495697 211.616760,378.723938 211.853119,377.952179 
	C212.392715,376.808075 212.932343,375.663971 213.753937,373.951782 
	C216.732559,367.352631 219.382828,361.300293 222.136734,355.295502 
	C226.238251,346.352234 230.412933,337.442535 234.556488,328.518585 
z"/>
<path fill="#2F2F2F" opacity="1.000000" stroke="none" 
	d="
M519.695679,279.043518 
	C522.448120,271.636749 525.436646,264.123199 528.640564,256.702637 
	C536.399292,238.732727 544.262146,220.807755 552.066162,202.857361 
	C552.444458,201.987335 552.662231,201.047546 553.325439,198.990356 
	C534.132568,198.990356 515.527893,198.990356 496.453156,198.973083 
	C497.146729,198.341843 498.306244,197.202225 499.474731,197.192917 
	C516.458069,197.057388 533.442749,197.034134 550.426819,197.079285 
	C554.863586,197.091080 555.806091,198.655746 554.080994,202.675385 
	C548.595154,215.458084 543.000305,228.194916 537.636047,241.028290 
	C536.092896,244.720123 535.406433,248.765961 533.920044,252.486877 
	C532.744751,255.429108 530.900879,258.098999 529.436890,260.932739 
	C527.997070,263.719788 526.717651,266.589966 525.266113,269.370575 
	C523.578430,272.603546 521.780090,275.778717 519.695679,279.043518 
z"/>
<path fill="#CECECE" opacity="1.000000" stroke="none" 
	d="
M354.513000,216.419739 
	C351.294922,213.660889 347.308319,211.418167 345.031128,208.027405 
	C341.200653,202.323792 336.473480,200.545532 329.870239,200.794266 
	C318.735291,201.213715 307.570770,201.053452 296.424133,200.845688 
	C292.531860,200.773148 291.177032,202.456085 289.753052,205.887070 
	C286.764709,213.087570 282.919312,219.932404 279.058960,226.879044 
	C278.994934,225.685852 279.297668,224.536835 279.933136,222.802460 
	C280.516510,221.146957 280.767181,220.076859 281.017822,219.006744 
	C281.523499,218.094315 282.029144,217.181870 282.830017,215.742920 
	C283.820282,213.518768 284.515350,211.821152 285.408356,209.908081 
	C285.727295,209.126724 285.848328,208.560822 286.272583,207.822281 
	C286.965820,206.920746 287.538208,206.233734 287.716675,205.456268 
	C288.993744,199.893234 292.492096,198.513580 297.966980,198.713913 
	C309.375610,199.131393 320.813934,198.987488 332.232941,198.742920 
	C336.565582,198.650146 340.362335,199.273865 343.507385,202.397186 
	C343.507385,202.397186 343.593781,202.397171 343.650787,202.768738 
	C347.309540,207.566788 350.911285,211.993271 354.513000,216.419739 
z"/>
<path fill="#BEBEBE" opacity="1.000000" stroke="none" 
	d="
M317.955200,328.000000 
	C315.458466,333.816986 312.961761,339.633972 309.813965,345.680725 
	C308.898834,345.845367 308.634796,345.780273 308.370758,345.715210 
	C309.253326,343.061707 310.135864,340.408203 311.167572,337.055420 
	C312.023407,335.125031 312.882263,333.955811 313.412476,332.652863 
	C317.405487,322.839905 321.333832,313.000671 325.282379,303.169617 
	C327.193756,299.944489 329.597534,300.282471 331.847473,302.572052 
	C334.604767,305.377960 337.101379,308.440002 339.804749,311.996948 
	C340.217133,312.811249 340.535431,313.019897 340.853699,313.228577 
	C341.348633,313.772186 341.843567,314.315796 342.625793,315.307190 
	C344.113342,316.961639 345.313568,318.168335 346.513824,319.375000 
	C346.513824,319.375000 346.602051,319.437897 346.701965,319.799713 
	C348.967438,322.994110 351.133026,325.826691 353.298615,328.659241 
	C346.798096,327.415131 345.253601,320.981049 341.315552,317.069366 
	C337.488190,313.267670 334.193970,308.929199 329.502197,303.473511 
	C326.618439,309.405334 324.230011,314.318268 321.622986,319.871399 
	C320.254639,323.007782 319.104919,325.503876 317.955200,328.000000 
z"/>
<path fill="#1E1E1E" opacity="1.000000" stroke="none" 
	d="
M322.922852,373.170685 
	C323.532959,374.001801 324.143097,374.832916 325.046753,376.132324 
	C328.831512,380.754395 332.322784,384.908203 335.814056,389.062012 
	C332.179840,389.319183 328.545624,389.576355 325.294525,389.806396 
	C325.076660,386.854218 325.778839,383.508575 324.431885,381.640198 
	C323.010712,379.668823 319.634583,379.106720 316.986206,377.869995 
	C319.660492,369.189697 310.559326,368.973999 306.170410,365.045410 
	C307.076050,363.093231 307.902100,361.312683 309.223633,359.282501 
	C314.120361,363.745483 318.521606,368.458099 322.922852,373.170685 
z"/>
<path fill="#E5E5E5" opacity="1.000000" stroke="none" 
	d="
M336.099792,389.117493 
	C332.322784,384.908203 328.831512,380.754395 325.333069,376.271637 
	C330.494110,374.407532 326.174500,373.053101 323.694977,370.823578 
	C327.728485,369.940033 330.461426,369.341400 333.194366,368.742737 
	C333.464447,369.227264 333.734528,369.711823 334.004578,370.196381 
	C332.556671,371.765717 331.108765,373.335052 328.757050,375.883972 
	C332.692291,377.852448 336.493011,379.876312 340.400177,381.668030 
	C343.347656,383.019592 345.220886,384.537354 342.340973,387.618164 
	C341.545349,387.104095 341.140869,386.805206 340.736389,386.506317 
	C340.643768,386.764435 340.427277,387.218262 340.477814,387.250244 
	C340.950714,387.549500 341.469330,387.776550 341.974731,388.024506 
	C343.501251,391.694061 345.027771,395.363617 346.388489,399.293152 
	C344.999817,398.509521 343.776917,397.465912 342.218018,395.965027 
	C340.472809,394.020599 339.063629,392.533478 337.654419,391.046356 
	C337.231476,390.421875 336.808533,389.797394 336.099792,389.117493 
z"/>
<path fill="#343434" opacity="1.000000" stroke="none" 
	d="
M262.708984,398.030457 
	C265.186462,391.266174 267.856964,384.359344 270.799316,377.570251 
	C277.715027,361.613129 284.760590,345.712250 292.026611,329.580383 
	C290.955170,333.619049 292.609528,338.779266 288.180756,342.150482 
	C287.324066,342.802612 286.841309,344.664398 287.022095,345.839600 
	C287.907745,351.596771 284.640137,355.482574 281.703156,359.810425 
	C279.710144,362.747314 279.084961,366.584839 277.615295,369.916931 
	C276.954865,371.414276 275.508362,372.555786 274.791595,374.039001 
	C271.497223,380.856293 268.355103,387.746979 265.105072,394.585999 
	C264.543762,395.767120 263.725250,396.826019 262.708984,398.030457 
z"/>
<path fill="#2F2F2F" opacity="1.000000" stroke="none" 
	d="
M234.618835,328.258362 
	C230.412933,337.442535 226.238251,346.352234 222.136734,355.295502 
	C219.382828,361.300293 216.732559,367.352631 213.797150,373.573181 
	C207.962021,372.161621 213.708511,370.262695 213.750854,368.459839 
	C214.200226,368.437012 214.319473,368.476624 214.438721,368.516235 
	C214.326691,368.314331 214.214661,368.112366 214.102600,367.910431 
	C215.614136,363.464783 217.592438,359.115509 218.534744,354.552338 
	C220.212479,346.427643 226.313522,340.867889 229.733200,333.789368 
	C231.791077,329.529663 233.949753,325.318665 236.435181,321.365417 
	C236.278763,323.456482 235.750305,325.267944 235.221848,327.079407 
	C235.041641,327.385651 234.861420,327.691925 234.618835,328.258362 
z"/>
<path fill="#1E1E1E" opacity="1.000000" stroke="none" 
	d="
M324.951660,303.040070 
	C321.333832,313.000671 317.405487,322.839905 313.412476,332.652863 
	C312.882263,333.955811 312.023407,335.125031 311.156769,336.678406 
	C309.488953,336.585449 307.981110,336.170258 305.822357,335.575836 
	C311.280457,329.533539 313.398376,322.861542 315.441132,315.829895 
	C316.679443,311.567291 317.582611,306.127838 322.152130,303.260712 
	C322.795135,302.857239 323.789276,303.013397 324.951660,303.040070 
z"/>
<path fill="#E5E5E5" opacity="1.000000" stroke="none" 
	d="
M360.109222,414.954987 
	C361.745850,414.824982 363.382507,414.694977 365.280823,414.544189 
	C367.930145,417.286377 366.182373,425.413330 372.932983,422.793701 
	C375.809814,427.269531 377.540131,433.280273 381.266846,435.023804 
	C387.727203,438.046204 387.442505,444.191620 389.997437,448.750366 
	C388.604553,448.285858 387.784576,447.676666 386.964630,447.067474 
	C386.934692,446.718048 386.788849,446.426605 386.293610,445.743286 
	C385.125885,444.444977 384.191620,443.596619 383.257324,442.748260 
	C383.257324,442.748260 383.000000,442.998779 383.110535,442.555878 
	C382.601562,441.572784 381.982086,441.032593 381.362610,440.492401 
	C380.449707,439.402161 379.536804,438.311890 378.294922,436.752197 
	C376.805115,434.873627 375.655182,433.455353 374.481628,432.056885 
	C369.694733,426.352997 364.900635,420.655090 360.109222,414.954987 
z"/>
<path fill="#2F2F2F" opacity="1.000000" stroke="none" 
	d="
M343.633911,202.031036 
	C340.362335,199.273865 336.565582,198.650146 332.232941,198.742920 
	C320.813934,198.987488 309.375610,199.131393 297.966980,198.713913 
	C292.492096,198.513580 288.993744,199.893234 287.716675,205.456268 
	C287.538208,206.233734 286.965820,206.920746 285.899017,207.839340 
	C284.477142,208.015091 283.731995,208.001144 282.992676,207.992767 
	C282.998505,207.998337 283.012115,208.006287 283.012115,208.006287 
	C286.006744,197.538773 288.850555,196.970062 297.842773,197.071075 
	C310.171448,197.209564 322.503540,197.028519 334.832764,197.141144 
	C338.425385,197.173965 342.363831,197.056152 343.633911,202.031036 
z"/>
<path fill="#272727" opacity="1.000000" stroke="none" 
	d="
M379.168396,241.834518 
	C381.254944,241.834518 383.341461,241.834518 385.435120,241.834518 
	C386.783173,250.078522 387.571503,250.734039 395.843079,251.210785 
	C396.785522,251.265106 398.368683,252.138901 398.474030,252.816345 
	C399.091278,256.786224 399.357391,260.810699 399.292084,265.108337 
	C397.334045,264.170471 395.825836,262.941010 394.317657,261.711548 
	C394.317657,261.711548 394.080231,261.937958 394.153015,261.470825 
	C389.020081,254.804459 383.814362,248.605270 378.748169,242.262787 
	C378.887695,242.119507 379.168396,241.834518 379.168396,241.834518 
z"/>
<path fill="#2F2F2F" opacity="1.000000" stroke="none" 
	d="
M484.363525,359.975525 
	C488.228088,349.917389 492.396118,339.809814 496.666565,329.745667 
	C498.936798,324.395477 501.384552,319.120636 504.001160,313.578461 
	C504.052704,318.253448 505.845459,323.127197 500.834534,327.540924 
	C497.918579,330.109375 497.760712,335.609253 495.803528,339.509979 
	C492.329529,346.433746 488.430695,353.144348 484.363525,359.975525 
z"/>
<path fill="#343434" opacity="1.000000" stroke="none" 
	d="
M181.100250,454.280823 
	C196.160934,453.751709 211.261826,453.630127 226.681091,453.247559 
	C227.445831,453.023773 227.892181,453.060944 228.670044,453.036713 
	C231.720123,452.970673 234.438675,452.966095 237.568604,452.967255 
	C236.106979,453.944611 234.253174,455.711731 232.357910,455.757385 
	C220.958771,456.032104 209.550095,455.914337 198.144623,455.922424 
	C193.980988,455.925385 189.813110,456.018982 185.655960,455.852112 
	C184.137650,455.791168 182.644867,455.094849 181.100250,454.280823 
z"/>
<path fill="#C6C6C6" opacity="1.000000" stroke="none" 
	d="
M411.968109,334.995819 
	C412.613342,332.273529 412.961304,329.436615 413.958923,326.850220 
	C417.096588,318.715515 420.701508,310.753571 423.596466,302.538269 
	C424.255981,300.666809 423.377472,297.646301 422.168152,295.856445 
	C420.007568,292.658630 417.008667,290.035706 414.479523,287.070709 
	C414.017792,286.529358 414.123810,285.503784 414.330231,284.381744 
	C416.149475,285.339600 417.606232,286.617401 419.062988,287.895203 
	C419.534271,288.497223 420.005554,289.099243 420.717712,290.194641 
	C421.990417,291.751770 423.022278,292.815521 424.054138,293.879242 
	C424.054138,293.879242 424.270111,294.164185 424.495911,294.537872 
	C425.477142,295.612457 426.232574,296.313324 426.987976,297.014221 
	C426.987976,297.014221 427.000000,297.000000 426.998383,297.351746 
	C427.022400,299.479126 427.048035,301.254761 427.073639,303.030396 
	C426.875946,303.313141 426.678223,303.595886 426.160522,304.344238 
	C423.008026,311.576721 420.175476,318.343597 417.342957,325.110443 
	C417.086700,325.679596 416.830475,326.248749 416.235229,327.306274 
	C415.281494,329.537079 414.666748,331.279480 414.052002,333.021881 
	C413.839905,333.294891 413.627838,333.567871 413.121155,334.194336 
	C412.540405,334.697113 412.254272,334.846466 411.968109,334.995819 
z"/>
<path fill="#1E1E1E" opacity="1.000000" stroke="none" 
	d="
M380.151001,325.930634 
	C375.816620,326.079407 372.052734,324.654419 370.279541,320.606781 
	C368.546082,316.649780 366.246033,314.342896 361.734802,314.642212 
	C361.034302,314.688690 360.281616,313.948090 358.619965,313.089081 
	C360.618073,312.420990 361.841736,312.011841 362.842285,311.677307 
	C362.646973,307.533447 354.442413,308.631348 357.071411,301.727295 
	C357.238983,300.628082 357.303009,300.333160 357.664001,300.229248 
	C359.300995,302.033478 360.641022,303.646729 361.993195,305.623779 
	C362.824158,306.505188 363.642975,307.022858 364.461823,307.540527 
	C364.307251,307.689911 364.152710,307.839325 364.124603,308.118958 
	C364.873566,308.817291 365.496094,309.385376 366.397522,310.129944 
	C370.535461,314.352112 374.394470,318.397858 378.253479,322.443573 
	C378.253479,322.443573 378.381439,322.595856 378.510193,322.965607 
	C379.142944,324.200439 379.646973,325.065552 380.151001,325.930634 
M359.523407,305.408234 
	C359.523407,305.408234 359.592255,305.521698 359.523407,305.408234 
z"/>
<path fill="#E5E5E5" opacity="1.000000" stroke="none" 
	d="
M322.971680,372.747925 
	C318.521606,368.458099 314.120361,363.745483 309.383789,358.964722 
	C309.062714,358.547058 308.932404,358.264221 308.381653,357.591888 
	C307.054199,355.386047 306.002533,353.636292 304.950867,351.886566 
	C305.934479,349.994720 306.918091,348.102844 308.136230,345.963104 
	C308.634796,345.780273 308.898834,345.845367 309.569519,345.939087 
	C310.501038,348.429962 310.560242,351.131409 311.670715,353.292786 
	C313.004852,355.889618 315.234070,358.026581 317.985931,359.587830 
	C319.664154,363.833618 321.342346,368.079407 322.971680,372.747925 
z"/>
<path fill="#2F2F2F" opacity="1.000000" stroke="none" 
	d="
M257.901520,274.950806 
	C257.698578,275.242310 257.495636,275.533844 256.976746,276.298157 
	C252.970917,284.717743 249.281097,292.664581 245.591293,300.611389 
	C243.716949,298.200684 241.872360,296.301575 246.438660,294.148956 
	C248.308029,293.267670 248.897797,289.487793 249.876114,286.951874 
	C250.878662,284.353180 251.518967,281.613617 252.541672,279.024078 
	C254.331238,274.492828 256.201294,269.987000 258.255096,265.571625 
	C258.682037,264.653748 260.055267,264.175995 261.419434,263.930023 
	C260.531494,267.893341 259.216492,271.422089 257.901520,274.950806 
z"/>
<path fill="#2F2F2F" opacity="1.000000" stroke="none" 
	d="
M393.689636,452.833313 
	C395.564880,453.152771 397.123596,453.708466 398.685577,453.717712 
	C411.588959,453.794342 424.494995,453.644470 437.395599,453.850800 
	C441.349670,453.914032 443.679901,452.457306 445.100250,448.592438 
	C445.288483,454.251648 443.865509,455.883301 438.282867,455.910614 
	C424.386810,455.978638 410.490112,455.965729 396.593933,455.910156 
	C393.539917,455.897919 390.477417,455.587708 390.197174,451.113342 
	C391.330994,451.422668 392.352814,452.119476 393.689636,452.833313 
z"/>
<path fill="#2F2F2F" opacity="1.000000" stroke="none" 
	d="
M449.434875,439.990417 
	C454.663971,426.953827 460.241516,413.875275 466.088562,400.578339 
	C468.239532,404.984680 467.580811,408.981598 463.497192,412.175934 
	C462.996765,412.567383 462.323792,413.146362 462.295258,413.669220 
	C462.036804,418.406036 460.992615,422.346039 457.336151,426.176331 
	C453.842834,429.835632 452.225342,435.285614 449.434875,439.990417 
z"/>
<path fill="#343434" opacity="1.000000" stroke="none" 
	d="
M360.077332,414.964966 
	C364.900635,420.655090 369.694733,426.352997 374.481628,432.056885 
	C375.655182,433.455353 376.805115,434.873627 378.016418,436.621338 
	C373.514099,433.934692 367.108002,433.372009 365.142365,426.862305 
	C364.726013,425.483429 363.262054,423.702606 361.990417,423.421722 
	C355.757751,422.045197 356.460876,417.114990 356.337402,412.388794 
	C357.798248,413.016418 358.924866,413.962463 360.051483,414.908478 
	C360.051483,414.908478 360.045471,414.974976 360.077332,414.964966 
z"/>
<path fill="#2F2F2F" opacity="1.000000" stroke="none" 
	d="
M197.319656,409.987854 
	C195.853485,414.489624 194.187531,419.131836 192.245911,423.655762 
	C188.522125,432.332123 184.641846,440.941345 180.540054,449.752502 
	C175.211578,447.091187 180.143021,444.434723 180.632324,441.854248 
	C180.999191,439.919617 183.608353,438.407898 183.968765,436.474731 
	C185.846252,426.404419 193.626129,419.337769 197.319656,409.987854 
z"/>
<path fill="#C6C6C6" opacity="1.000000" stroke="none" 
	d="
M245.561432,300.867920 
	C249.281097,292.664581 252.970917,284.717743 256.928528,276.563904 
	C257.280853,277.140320 257.676056,278.057648 257.404572,278.687592 
	C250.614441,294.441498 243.757690,310.166718 236.886444,325.885529 
	C236.701828,326.307861 236.225876,326.602844 235.553818,327.018311 
	C235.750305,325.267944 236.278763,323.456482 236.765167,321.288391 
	C236.992477,320.376984 237.261841,319.822235 237.900360,318.774506 
	C239.154526,315.845245 240.039551,313.408966 240.924591,310.972656 
	C241.689056,309.351746 242.453537,307.730835 243.569946,305.602417 
	C244.285400,304.064850 244.648911,303.034790 245.012421,302.004761 
	C245.185486,301.711334 245.358536,301.417877 245.561432,300.867920 
z"/>
<path fill="#2F2F2F" opacity="1.000000" stroke="none" 
	d="
M354.546448,216.444977 
	C350.911285,211.993271 347.309540,207.566788 343.649536,202.811920 
	C344.072327,202.434631 344.764862,202.153702 345.003174,202.370972 
	C350.035919,206.959747 354.879333,211.766464 360.054718,216.185150 
	C363.891205,219.460709 367.192352,222.801056 366.656372,228.595016 
	C364.883759,227.581848 363.466675,226.250244 362.049561,224.918655 
	C361.994019,224.583740 361.826385,224.320099 361.308594,223.696915 
	C359.693420,221.873779 358.316254,220.481445 356.939117,219.089127 
	C356.939117,219.089127 356.991241,219.009247 356.926819,218.727554 
	C356.113251,217.812683 355.364105,217.179489 354.614960,216.546310 
	C354.614960,216.546310 354.579895,216.470200 354.546448,216.444977 
z"/>
<path fill="#C6C6C6" opacity="1.000000" stroke="none" 
	d="
M258.260681,274.938049 
	C259.216492,271.422089 260.531494,267.893341 261.774445,264.103027 
	C261.702393,263.841431 261.796631,263.630310 262.045410,263.321381 
	C263.518616,260.004120 264.743042,256.995758 265.967438,253.987411 
	C266.309265,253.207062 266.651123,252.426712 267.261505,251.114960 
	C268.602020,248.029800 269.674042,245.476059 270.746033,242.922302 
	C271.023834,242.369797 271.301666,241.817276 271.925873,240.787094 
	C272.506134,239.536423 272.740021,238.763412 272.973877,237.990417 
	C273.631348,236.556229 274.288818,235.122040 275.271912,233.208893 
	C275.717438,232.147964 275.837280,231.566010 275.957123,230.984039 
	C276.150635,230.705231 276.344147,230.426407 276.799072,229.776093 
	C277.236237,229.066086 277.512695,228.924942 277.889923,228.981201 
	C278.187195,229.518280 278.874786,230.225388 278.725525,230.567932 
	C272.349243,245.203537 265.901031,259.807831 259.435638,274.404449 
	C259.326752,274.650299 258.898895,274.754822 258.260681,274.938049 
z"/>
<path fill="#272727" opacity="1.000000" stroke="none" 
	d="
M442.897827,317.142578 
	C439.485413,326.117310 435.691559,335.077942 431.619690,344.160034 
	C430.817108,343.043823 429.543854,341.524323 429.886871,340.613403 
	C432.545685,333.552490 435.391785,326.552429 438.508209,319.682526 
	C439.056519,318.473846 441.141205,317.962128 442.897827,317.142578 
z"/>
<path fill="#343434" opacity="1.000000" stroke="none" 
	d="
M319.961426,266.814697 
	C320.320404,264.795227 321.002533,262.843506 322.008484,259.965302 
	C324.139496,262.016754 325.684082,263.503693 327.574982,265.037659 
	C327.921295,265.084686 327.931396,265.048950 327.935059,265.391113 
	C328.979950,266.793793 330.021210,267.854340 331.062439,268.914886 
	C331.062439,268.914886 331.002136,268.989960 331.086548,269.278564 
	C331.972473,270.215576 332.773987,270.863983 333.575500,271.512360 
	C333.862793,271.943604 334.150055,272.374847 334.680603,273.272858 
	C336.148621,274.937561 337.373413,276.135498 338.598206,277.333435 
	C338.598206,277.333435 338.691162,277.309265 338.724701,277.629700 
	C339.300629,278.432220 339.843018,278.914307 340.385437,279.396393 
	C340.385437,279.396393 340.475830,279.501587 340.545990,279.874451 
	C341.117096,281.140808 341.618073,282.034302 342.119019,282.927795 
	C339.567413,281.413910 335.551971,280.449127 334.739349,278.282898 
	C332.324585,271.845825 327.118958,269.670044 321.645111,267.417847 
	C321.194458,267.232391 320.738220,267.060577 319.961426,266.814697 
z"/>
<path fill="#2F2F2F" opacity="1.000000" stroke="none" 
	d="
M353.308990,328.673859 
	C351.133026,325.826691 348.967438,322.994110 346.731140,319.845367 
	C349.287231,317.523041 352.379242,319.135498 353.916687,322.786224 
	C354.783691,324.844910 356.549316,326.515289 357.843689,328.406097 
	C359.904968,331.417206 361.910767,334.466278 363.880005,337.884155 
	C362.456299,337.204956 361.092621,336.140930 359.406311,334.981750 
	C358.590973,334.327972 358.098236,333.769379 357.336945,332.730133 
	C355.827820,331.070190 354.587219,329.890930 353.346649,328.711639 
	C353.346649,328.711639 353.319366,328.688477 353.308990,328.673859 
z"/>
<path fill="#272727" opacity="1.000000" stroke="none" 
	d="
M479.132111,234.272385 
	C476.608002,241.132034 473.674744,247.900436 470.451599,254.851501 
	C468.414093,252.398514 469.688782,246.330811 472.340240,243.470642 
	C473.218506,242.523209 473.806732,241.099503 474.041412,239.805389 
	C474.556183,236.966995 474.769775,234.079971 479.132111,234.272385 
z"/>
<path fill="#343434" opacity="1.000000" stroke="none" 
	d="
M307.294800,295.948364 
	C310.904572,286.594788 314.868927,277.217163 319.099426,267.619263 
	C320.171082,272.563812 318.321198,276.683746 315.335297,280.946503 
	C312.145966,285.499695 310.160400,290.896027 307.294800,295.948364 
z"/>
<path fill="#343434" opacity="1.000000" stroke="none" 
	d="
M238.326660,452.991333 
	C242.200027,443.357910 246.427322,433.736847 250.932556,423.968750 
	C251.504211,423.945770 252.059113,424.168976 252.054962,424.179901 
	C249.539963,430.804718 247.194626,437.506317 244.347229,443.987305 
	C242.934814,447.202118 240.598770,450.011108 238.326660,452.991333 
z"/>
<path fill="#C6C6C6" opacity="1.000000" stroke="none" 
	d="
M361.981049,305.260010 
	C360.641022,303.646729 359.300995,302.033478 357.577087,299.986359 
	C356.635284,299.163574 356.077362,298.774658 355.519409,298.385742 
	C355.300201,297.926178 355.080963,297.466583 354.604736,296.533997 
	C353.566559,295.371857 352.785339,294.682800 352.004120,293.993713 
	C351.282227,293.028625 350.560333,292.063568 349.851776,290.796295 
	C350.359863,289.428802 350.854614,288.363525 351.381714,287.228577 
	C355.495819,293.286407 359.258087,298.826141 362.743713,304.786377 
	C362.467102,305.206848 361.981049,305.260010 361.981049,305.260010 
z"/>
<path fill="#E5E5E5" opacity="1.000000" stroke="none" 
	d="
M360.054535,414.561432 
	C358.924866,413.962463 357.798248,413.016418 356.354553,412.001953 
	C355.949402,411.614624 355.771271,411.358276 355.247070,410.731750 
	C353.773071,409.040833 352.555115,407.782654 351.337158,406.524506 
	C350.281860,405.211609 349.226562,403.898712 348.151001,402.267487 
	C349.411896,402.189423 350.867645,402.122650 351.938782,402.731995 
	C354.383881,404.122833 356.640656,405.844818 358.942444,407.410889 
	C359.281494,409.479401 359.669556,411.846893 360.054535,414.561432 
z"/>
<path fill="#272727" opacity="1.000000" stroke="none" 
	d="
M468.999268,257.186249 
	C467.211517,262.477997 465.031097,267.724731 462.538452,273.163940 
	C460.920837,265.895172 463.408356,259.573303 468.999268,257.186249 
z"/>
<path fill="#C6C6C6" opacity="1.000000" stroke="none" 
	d="
M394.231628,262.109680 
	C395.825836,262.941010 397.334045,264.170471 399.147247,265.531799 
	C400.373322,266.875671 401.294342,268.087646 402.514648,269.773651 
	C403.507538,270.879791 404.201202,271.511932 404.894836,272.144104 
	C405.747803,273.337158 406.600800,274.530212 407.454987,276.038330 
	C406.325439,276.030243 404.882538,276.040619 404.118500,275.325562 
	C400.983307,272.391418 397.958984,269.321075 395.115753,266.104706 
	C394.378937,265.271210 394.447144,263.726074 394.231628,262.109680 
z"/>
<path fill="#C6C6C6" opacity="1.000000" stroke="none" 
	d="
M394.425446,340.711395 
	C395.061737,340.585205 395.920135,340.129547 396.299103,340.385040 
	C399.269714,342.387787 402.148407,344.526764 405.055481,346.623749 
	C404.486206,347.194153 403.916962,347.764557 403.347717,348.334961 
	C404.358246,347.560852 405.368805,346.786713 406.766785,346.389526 
	C406.792664,348.193298 406.431091,349.620087 406.069519,351.046906 
	C406.069519,351.046906 406.003662,351.003601 405.621094,351.024231 
	C404.168427,351.017883 403.098297,350.990875 402.028198,350.963867 
	C402.028198,350.963867 402.000000,351.000000 401.986359,350.649109 
	C400.312164,348.537964 398.651611,346.777710 396.991058,345.017456 
	C396.608673,344.472809 396.226318,343.928192 395.557007,342.950928 
	C394.988556,341.916016 394.707001,341.313690 394.425446,340.711395 
z"/>
<path fill="#1E1E1E" opacity="1.000000" stroke="none" 
	d="
M337.284668,391.115479 
	C339.063629,392.533478 340.472809,394.020599 341.925171,395.853394 
	C340.639099,397.710175 339.309814,399.221252 337.980530,400.732361 
	C337.334717,398.913483 336.418823,397.135345 336.136200,395.261688 
	C335.941559,393.971161 336.624298,392.548279 337.284668,391.115479 
z"/>
<path fill="#2F2F2F" opacity="1.000000" stroke="none" 
	d="
M394.347717,340.672180 
	C394.707001,341.313690 394.988556,341.916016 395.275085,342.770996 
	C394.376495,343.963226 393.509705,345.592377 392.558807,345.643005 
	C391.657745,345.691010 390.168060,344.242401 389.829132,343.170044 
	C389.242279,341.313354 389.344604,339.238861 389.565369,336.988525 
	C390.647125,337.149323 391.321381,337.577301 391.995667,338.005249 
	C391.995667,338.005249 392.000000,338.000000 392.022522,338.299774 
	C392.764709,339.223663 393.484375,339.847748 394.204041,340.471863 
	C394.204041,340.471863 394.269989,340.632996 394.347717,340.672180 
z"/>
<path fill="#343434" opacity="1.000000" stroke="none" 
	d="
M417.669434,325.043671 
	C420.175476,318.343597 423.008026,311.576721 426.117493,304.602844 
	C425.556183,312.056519 422.603363,318.854309 417.669434,325.043671 
z"/>
<path fill="#2F2F2F" opacity="1.000000" stroke="none" 
	d="
M467.365356,398.977692 
	C468.950409,394.250061 470.908569,389.503326 473.170013,384.579529 
	C472.977051,387.984650 472.839996,391.673401 471.822723,395.100861 
	C471.361786,396.653992 469.153900,397.688690 467.365356,398.977692 
z"/>
<path fill="#343434" opacity="1.000000" stroke="none" 
	d="
M406.420135,351.011780 
	C406.431091,349.620087 406.792664,348.193298 407.108246,346.397919 
	C407.267914,345.745605 407.473602,345.461884 408.024933,344.734802 
	C409.299774,341.894836 410.228973,339.498230 411.158173,337.101624 
	C411.425446,336.596893 411.692688,336.092133 411.964020,335.291626 
	C412.254272,334.846466 412.540405,334.697113 413.058044,334.448669 
	C411.116577,339.891937 408.943665,345.434265 406.420135,351.011780 
z"/>
<path fill="#1E1E1E" opacity="1.000000" stroke="none" 
	d="
M304.636627,351.934509 
	C306.002533,353.636292 307.054199,355.386047 308.154022,357.512451 
	C306.399353,357.933167 304.596527,357.977234 302.793701,358.021301 
	C303.303253,356.008362 303.812805,353.995392 304.636627,351.934509 
z"/>
<path fill="#343434" opacity="1.000000" stroke="none" 
	d="
M300.698059,311.033203 
	C302.171844,306.680359 303.969208,302.243958 306.025360,297.588348 
	C304.529968,301.895966 302.775787,306.422791 300.698059,311.033203 
z"/>
<path fill="#C6C6C6" opacity="1.000000" stroke="none" 
	d="
M342.324036,283.042694 
	C341.618073,282.034302 341.117096,281.140808 340.577820,279.936035 
	C345.503632,279.825958 346.111847,284.193085 347.738342,287.607727 
	C347.344086,287.846893 347.166901,287.857147 346.683319,287.408264 
	C345.265839,285.943695 344.154724,284.938263 343.043610,283.932861 
	C342.946442,283.625092 342.774933,283.366669 342.324036,283.042694 
z"/>
<path fill="#2F2F2F" opacity="1.000000" stroke="none" 
	d="
M265.623169,254.003036 
	C264.743042,256.995758 263.518616,260.004120 262.035095,263.206238 
	C261.222015,259.630066 260.786285,255.904266 265.623169,254.003036 
z"/>
<path fill="#272727" opacity="1.000000" stroke="none" 
	d="
M405.084991,271.884094 
	C404.201202,271.511932 403.507538,270.879791 402.792236,269.959808 
	C404.132629,268.180115 405.494690,266.688263 406.856750,265.196411 
	C407.298737,265.451508 407.740723,265.706573 408.182739,265.961639 
	C407.213531,267.849121 406.244354,269.736603 405.084991,271.884094 
z"/>
<path fill="#2F2F2F" opacity="1.000000" stroke="none" 
	d="
M507.484680,307.004822 
	C508.660034,303.275879 510.182800,299.502106 511.980652,295.526733 
	C510.781219,299.203430 509.306641,303.081726 507.484680,307.004822 
z"/>
<path fill="#C6C6C6" opacity="1.000000" stroke="none" 
	d="
M380.426147,326.093567 
	C379.646973,325.065552 379.142944,324.200439 378.583984,323.032227 
	C383.612000,322.435638 383.518311,327.003632 385.191010,330.233368 
	C385.146179,330.596069 384.780853,330.831665 384.502441,330.550049 
	C383.682312,329.776642 383.140533,329.284851 382.598755,328.793091 
	C381.966278,327.947571 381.333771,327.102051 380.426147,326.093567 
z"/>
<path fill="#2F2F2F" opacity="1.000000" stroke="none" 
	d="
M204.442017,393.996033 
	C203.250763,397.695374 201.721573,401.459900 199.924133,405.437317 
	C201.138626,401.787201 202.621368,397.924225 204.442017,393.996033 
z"/>
<path fill="#2F2F2F" opacity="1.000000" stroke="none" 
	d="
M513.598022,293.014679 
	C514.764404,289.308624 516.265869,285.534302 518.044006,281.557922 
	C516.858154,285.219391 515.395630,289.082886 513.598022,293.014679 
z"/>
<path fill="#C6C6C6" opacity="1.000000" stroke="none" 
	d="
M413.093994,282.946289 
	C411.162811,281.044708 409.231659,279.143127 407.476685,276.899658 
	C409.449005,278.160370 411.245178,279.762970 413.166718,281.876984 
	C413.226044,282.574371 413.160004,282.760345 413.093994,282.946289 
z"/>
<path fill="#2F2F2F" opacity="1.000000" stroke="none" 
	d="
M270.418823,242.984970 
	C269.674042,245.476059 268.602020,248.029800 267.260559,250.791000 
	C268.024628,248.348175 269.058105,245.697906 270.418823,242.984970 
z"/>
<path fill="#343434" opacity="1.000000" stroke="none" 
	d="
M396.961487,345.391296 
	C398.651611,346.777710 400.312164,348.537964 402.004303,350.635071 
	C400.334564,349.236298 398.633240,347.500732 396.961487,345.391296 
z"/>
<path fill="#C6C6C6" opacity="1.000000" stroke="none" 
	d="
M392.029968,337.637482 
	C391.321381,337.577301 390.647125,337.149323 389.683777,336.614502 
	C389.394714,336.507690 389.288300,336.184784 389.123962,335.789398 
	C388.348358,334.919556 387.737030,334.445099 387.125702,333.970642 
	C386.956268,333.588959 386.786835,333.207275 386.641815,332.512634 
	C388.465607,333.889679 390.264954,335.579681 392.029968,337.637482 
z"/>
<path fill="#CECECE" opacity="1.000000" stroke="none" 
	d="
M361.999512,225.291382 
	C363.466675,226.250244 364.883759,227.581848 366.615417,229.012817 
	C367.091003,229.473068 367.252075,229.833939 367.395111,230.491959 
	C365.567871,229.080765 363.758667,227.372437 361.999512,225.291382 
z"/>
<path fill="#343434" opacity="1.000000" stroke="none" 
	d="
M413.302490,283.057251 
	C413.160004,282.760345 413.226044,282.574371 413.411438,282.117493 
	C415.395111,283.622131 417.259369,285.397675 419.093323,287.534241 
	C417.606232,286.617401 416.149475,285.339600 414.367615,283.997375 
	C413.951752,283.618011 413.774567,283.363068 413.302490,283.057251 
z"/>
<path fill="#2F2F2F" opacity="1.000000" stroke="none" 
	d="
M424.565063,358.971741 
	C424.478851,360.142578 424.091858,361.333344 423.452698,362.723877 
	C422.287567,362.540100 421.374573,362.156555 420.461609,361.773010 
	C421.729156,360.845886 422.996735,359.918732 424.565063,358.971741 
z"/>
<path fill="#CECECE" opacity="1.000000" stroke="none" 
	d="
M371.055115,234.448792 
	C370.240906,235.153946 369.426666,235.527100 368.612427,235.900269 
	C368.721924,234.877747 368.831421,233.855240 369.243591,232.933441 
	C370.049194,233.395020 370.552124,233.755905 371.055115,234.448792 
z"/>
<path fill="#272727" opacity="1.000000" stroke="none" 
	d="
M453.388306,293.011230 
	C452.844086,295.361816 451.961761,297.791351 450.799835,300.432434 
	C451.363556,298.126038 452.206879,295.608093 453.388306,293.011230 
z"/>
<path fill="#2F2F2F" opacity="1.000000" stroke="none" 
	d="
M240.568878,311.017090 
	C240.039551,313.408966 239.154526,315.845245 237.984879,318.476624 
	C238.537888,316.134949 239.375519,313.598236 240.568878,311.017090 
z"/>
<path fill="#343434" opacity="1.000000" stroke="none" 
	d="
M427.417664,303.002991 
	C427.048035,301.254761 427.022400,299.479126 426.991028,297.357300 
	C431.790131,298.407471 429.277130,300.756470 427.417664,303.002991 
z"/>
<path fill="#2F2F2F" opacity="1.000000" stroke="none" 
	d="
M429.728149,347.050598 
	C429.862885,348.003723 429.607330,348.953033 429.085327,350.045380 
	C428.190826,350.113159 427.562775,350.037872 426.466431,349.980225 
	C425.998108,349.997864 426.012115,350.006317 426.012115,350.006317 
	C427.120697,349.019775 428.229279,348.033264 429.728149,347.050598 
z"/>
<path fill="#272727" opacity="1.000000" stroke="none" 
	d="
M461.365906,274.997467 
	C460.961853,276.813477 460.244141,278.703461 459.256287,280.795349 
	C459.674866,279.021973 460.363586,277.046692 461.365906,274.997467 
z"/>
<path fill="#272727" opacity="1.000000" stroke="none" 
	d="
M445.560242,310.987885 
	C445.476105,312.208832 445.034393,313.442535 444.299927,314.838898 
	C442.627563,313.136627 442.395111,311.614441 445.560242,310.987885 
z"/>
<path fill="#2F2F2F" opacity="1.000000" stroke="none" 
	d="
M285.210449,210.123535 
	C284.515350,211.821152 283.820282,213.518768 282.858490,215.428680 
	C282.748840,214.034775 282.905853,212.428589 283.030518,210.412247 
	C282.998138,210.002106 282.985931,210.013870 283.356567,210.037933 
	C284.221588,210.082504 284.716034,210.103027 285.210449,210.123535 
z"/>
<path fill="#2F2F2F" opacity="1.000000" stroke="none" 
	d="
M346.632812,319.021118 
	C345.313568,318.168335 344.113342,316.961639 342.877014,315.426331 
	C344.144562,316.287537 345.448181,317.477356 346.632812,319.021118 
z"/>
<path fill="#343434" opacity="1.000000" stroke="none" 
	d="
M402.011932,351.299072 
	C403.098297,350.990875 404.168427,351.017883 405.642944,351.057007 
	C405.092377,354.093781 403.823944,354.871033 402.011932,351.299072 
z"/>
<path fill="#343434" opacity="1.000000" stroke="none" 
	d="
M351.242676,406.886688 
	C352.555115,407.782654 353.773071,409.040833 355.033081,410.628296 
	C353.766144,409.721375 352.457184,408.485107 351.242676,406.886688 
z"/>
<path fill="#272727" opacity="1.000000" stroke="none" 
	d="
M375.167419,239.965607 
	C375.004456,239.555481 374.841461,239.145355 374.722443,238.406891 
	C376.160034,239.114746 377.553711,240.150955 379.057861,241.510834 
	C379.168396,241.834518 378.887695,242.119507 378.464508,242.142471 
	C377.083344,241.432159 376.125366,240.698883 375.167419,239.965607 
z"/>
<path fill="#343434" opacity="1.000000" stroke="none" 
	d="
M252.866241,421.095398 
	C252.946838,419.683594 253.402405,418.216217 254.150726,416.576050 
	C254.042725,417.948761 253.641968,419.494263 252.866241,421.095398 
z"/>
<path fill="#2F2F2F" opacity="1.000000" stroke="none" 
	d="
M492.343475,203.995636 
	C492.069641,205.602310 491.461243,207.300537 490.547485,209.164001 
	C490.831024,207.581909 491.419952,205.834549 492.343475,203.995636 
z"/>
<path fill="#2F2F2F" opacity="1.000000" stroke="none" 
	d="
M481.356873,366.944550 
	C481.601074,365.260956 482.212372,363.526031 483.093048,361.580536 
	C482.816315,363.211060 482.270142,365.052124 481.356873,366.944550 
z"/>
<path fill="#2F2F2F" opacity="1.000000" stroke="none" 
	d="
M446.392273,446.970703 
	C446.652863,445.266968 447.282166,443.524445 448.209412,441.605103 
	C447.925201,443.262787 447.343079,445.097382 446.392273,446.970703 
z"/>
<path fill="#2F2F2F" opacity="1.000000" stroke="none" 
	d="
M209.323349,382.981506 
	C209.185440,384.338318 208.682770,385.770599 207.940216,387.427734 
	C208.119751,386.120697 208.539154,384.588867 209.323349,382.981506 
z"/>
<path fill="#343434" opacity="1.000000" stroke="none" 
	d="
M414.419128,332.980713 
	C414.666748,331.279480 415.281494,329.537079 416.193390,327.618347 
	C415.922485,329.274536 415.354401,331.107056 414.419128,332.980713 
z"/>
<path fill="#343434" opacity="1.000000" stroke="none" 
	d="
M343.022278,284.341064 
	C344.154724,284.938263 345.265839,285.943695 346.458038,287.266327 
	C344.053284,288.269714 342.998169,287.169769 343.022278,284.341064 
z"/>
<path fill="#272727" opacity="1.000000" stroke="none" 
	d="
M351.861481,294.303467 
	C352.785339,294.682800 353.566559,295.371857 354.399719,296.377808 
	C353.463501,296.881500 352.475342,297.068359 351.487213,297.255219 
	C351.564423,296.374542 351.641632,295.493866 351.861481,294.303467 
z"/>
<path fill="#343434" opacity="1.000000" stroke="none" 
	d="
M255.625595,414.010864 
	C255.786514,412.659973 256.298218,411.228638 257.068787,409.591888 
	C256.877258,410.901123 256.426819,412.415771 255.625595,414.010864 
z"/>
<path fill="#2F2F2F" opacity="1.000000" stroke="none" 
	d="
M386.930298,447.439392 
	C387.784576,447.676666 388.604553,448.285858 389.737854,448.942383 
	C390.159271,449.368042 390.267395,449.746399 390.339294,450.421600 
	C389.167358,449.749390 388.031647,448.780334 386.930298,447.439392 
z"/>
<path fill="#343434" opacity="1.000000" stroke="none" 
	d="
M424.071777,293.519836 
	C423.022278,292.815521 421.990417,291.751770 420.959717,290.355469 
	C422.003754,291.068756 423.046600,292.114563 424.071777,293.519836 
z"/>
<path fill="#272727" opacity="1.000000" stroke="none" 
	d="
M355.320099,298.706818 
	C356.077362,298.774658 356.635284,299.163574 357.280151,299.795380 
	C357.303009,300.333160 357.238983,300.628082 357.100128,301.367035 
	C354.629852,302.088165 353.735352,301.338104 355.320099,298.706818 
z"/>
<path fill="#2F2F2F" opacity="1.000000" stroke="none" 
	d="
M476.537262,377.984924 
	C476.671875,376.601349 477.162506,375.141998 477.929138,373.499054 
	C477.767853,374.846680 477.330566,376.377899 476.537262,377.984924 
z"/>
<path fill="#343434" opacity="1.000000" stroke="none" 
	d="
M297.597260,318.004517 
	C297.746643,316.637878 298.246979,315.191376 299.019958,313.555847 
	C298.844452,314.886078 298.396332,316.405365 297.597260,318.004517 
z"/>
<path fill="#343434" opacity="1.000000" stroke="none" 
	d="
M383.189209,443.101135 
	C384.191620,443.596619 385.125885,444.444977 386.076782,445.620392 
	C385.102692,445.116272 384.111908,444.285126 383.189209,443.101135 
z"/>
<path fill="#1E1E1E" opacity="1.000000" stroke="none" 
	d="
M382.280701,328.942993 
	C383.140533,329.284851 383.682312,329.776642 384.285156,330.545746 
	C383.551727,330.246338 382.757202,329.669647 382.280701,328.942993 
z"/>
<path fill="#2F2F2F" opacity="1.000000" stroke="none" 
	d="
M280.621674,219.073044 
	C280.767181,220.076859 280.516510,221.146957 280.024902,222.447525 
	C279.931152,221.498428 280.078339,220.318878 280.621674,219.073044 
z"/>
<path fill="#2F2F2F" opacity="1.000000" stroke="none" 
	d="
M504.909485,312.759613 
	C504.858093,311.893311 505.150848,311.091949 505.739594,310.148804 
	C505.774933,310.946198 505.514313,311.885376 504.909485,312.759613 
z"/>
<path fill="#2F2F2F" opacity="1.000000" stroke="none" 
	d="
M386.864166,334.132568 
	C387.737030,334.445099 388.348358,334.919556 388.981873,335.696106 
	C388.203583,335.430298 387.403107,334.862396 386.864166,334.132568 
z"/>
<path fill="#2F2F2F" opacity="1.000000" stroke="none" 
	d="
M244.639969,302.063721 
	C244.648911,303.034790 244.285400,304.064850 243.635086,305.272522 
	C243.654694,304.340973 243.961105,303.231842 244.639969,302.063721 
z"/>
<path fill="#343434" opacity="1.000000" stroke="none" 
	d="
M427.025269,296.635284 
	C426.232574,296.313324 425.477142,295.612457 424.665771,294.593658 
	C425.427399,294.935944 426.244995,295.596161 427.025269,296.635284 
z"/>
<path fill="#272727" opacity="1.000000" stroke="none" 
	d="
M456.603760,286.058777 
	C456.600037,287.019897 456.230011,288.048950 455.563904,289.244202 
	C455.591003,288.315826 455.914215,287.221252 456.603760,286.058777 
z"/>
<path fill="#343434" opacity="1.000000" stroke="none" 
	d="
M259.600922,404.999603 
	C259.492096,404.314880 259.721802,403.542267 260.229736,402.612762 
	C260.318451,403.274506 260.128967,404.093079 259.600922,404.999603 
z"/>
<path fill="#2F2F2F" opacity="1.000000" stroke="none" 
	d="
M495.031586,199.255676 
	C495.007935,199.975433 494.584656,200.651138 493.903473,201.486450 
	C493.974335,200.834579 494.303131,200.023102 495.031586,199.255676 
z"/>
<path fill="#343434" opacity="1.000000" stroke="none" 
	d="
M381.278381,440.858765 
	C381.982086,441.032593 382.601562,441.572784 383.240662,442.432312 
	C382.571594,442.242828 381.882843,441.734009 381.278381,440.858765 
z"/>
<path fill="#272727" opacity="1.000000" stroke="none" 
	d="
M369.492798,231.010040 
	C369.930176,230.490280 370.407959,229.921600 370.885742,229.352905 
	C371.077942,229.546570 371.270172,229.740234 371.462372,229.933899 
	C371.007874,230.295944 370.553345,230.657990 369.776062,231.037903 
	C369.453247,231.055771 369.533203,230.961121 369.492798,231.010040 
z"/>
<path fill="#2F2F2F" opacity="1.000000" stroke="none" 
	d="
M474.381470,382.932617 
	C474.237152,382.228302 474.462006,381.451874 474.945221,380.499115 
	C475.052582,381.168671 474.901581,382.014587 474.381470,382.932617 
z"/>
<path fill="#2F2F2F" opacity="1.000000" stroke="none" 
	d="
M275.668884,230.993134 
	C275.837280,231.566010 275.717438,232.147964 275.320953,232.869171 
	C275.156464,232.339691 275.268585,231.670959 275.668884,230.993134 
z"/>
<path fill="#272727" opacity="1.000000" stroke="none" 
	d="
M480.508545,231.050262 
	C480.658447,231.751938 480.441559,232.538589 479.976624,233.518890 
	C479.866333,232.853455 480.004028,231.994354 480.508545,231.050262 
z"/>
<path fill="#2F2F2F" opacity="1.000000" stroke="none" 
	d="
M272.610413,238.073166 
	C272.740021,238.763412 272.506134,239.536423 272.014618,240.489227 
	C271.920258,239.831314 272.083588,238.993622 272.610413,238.073166 
z"/>
<path fill="#2F2F2F" opacity="1.000000" stroke="none" 
	d="
M277.936707,228.640167 
	C277.512695,228.924942 277.236237,229.066086 276.843231,229.522781 
	C276.813293,228.780731 277.000641,227.920517 277.560516,227.014801 
	C277.949890,227.412567 277.966705,227.855850 277.936707,228.640167 
z"/>
<path fill="#272727" opacity="1.000000" stroke="none" 
	d="
M482.659271,226.078049 
	C482.800415,226.803635 482.557770,227.593048 482.051544,228.561386 
	C481.950500,227.874176 482.113007,227.008026 482.659271,226.078049 
z"/>
<path fill="#272727" opacity="1.000000" stroke="none" 
	d="
M485.337524,220.026749 
	C485.456604,220.710037 485.241425,221.496964 484.756409,222.455353 
	C484.658783,221.794693 484.831024,220.962540 485.337524,220.026749 
z"/>
<path fill="#272727" opacity="1.000000" stroke="none" 
	d="
M448.664185,304.014099 
	C448.805634,304.539642 448.661194,305.094086 448.272522,305.827209 
	C448.144989,305.351593 448.261658,304.697296 448.664185,304.014099 
z"/>
<path fill="#343434" opacity="1.000000" stroke="none" 
	d="
M294.575928,324.984009 
	C294.416809,324.287933 294.603638,323.497772 295.063507,322.540466 
	C295.198303,323.212189 295.060089,324.051056 294.575928,324.984009 
z"/>
<path fill="#272727" opacity="1.000000" stroke="none" 
	d="
M488.490723,212.962128 
	C488.644623,213.503357 488.521942,214.067993 488.156982,214.807495 
	C488.014526,214.316757 488.114319,213.651138 488.490723,212.962128 
z"/>
<path fill="#2F2F2F" opacity="1.000000" stroke="none" 
	d="
M479.577728,370.978577 
	C479.438446,370.285980 479.643036,369.498596 480.121155,368.542633 
	C480.237030,369.210632 480.079315,370.047211 479.577728,370.978577 
z"/>
<path fill="#2F2F2F" opacity="1.000000" stroke="none" 
	d="
M419.380249,371.014038 
	C419.541809,371.696686 419.358521,372.478210 418.926697,373.447266 
	C418.797272,372.794128 418.916321,371.953522 419.380249,371.014038 
z"/>
<path fill="#2F2F2F" opacity="1.000000" stroke="none" 
	d="
M211.500290,378.041016 
	C211.616760,378.723938 211.380386,379.495697 210.888306,380.453217 
	C210.804230,379.802612 210.975845,378.966248 211.500290,378.041016 
z"/>
<path fill="#2F2F2F" opacity="1.000000" stroke="none" 
	d="
M283.005249,209.997864 
	C282.870605,209.431870 282.728882,208.870102 282.799622,208.157318 
	C283.012115,208.006287 282.998505,207.998337 282.975708,208.330383 
	C282.963898,209.112915 282.974915,209.563400 282.985931,210.013870 
	C282.985931,210.013870 282.998138,210.002106 283.005249,209.997864 
z"/>
<path fill="#2F2F2F" opacity="1.000000" stroke="none" 
	d="
M425.992249,349.991028 
	C425.879211,350.385529 425.772064,350.786835 425.664886,351.188141 
	C425.662231,350.879669 425.659546,350.571228 425.834503,350.134521 
	C426.012115,350.006317 425.998108,349.997864 425.992249,349.991028 
z"/>
<path fill="#2F2F2F" opacity="1.000000" stroke="none" 
	d="
M340.798401,312.971802 
	C340.535431,313.019897 340.217133,312.811249 339.938934,312.304382 
	C340.233734,312.242432 340.488403,312.478729 340.798401,312.971802 
z"/>
<path fill="#C6C6C6" opacity="1.000000" stroke="none" 
	d="
M374.890198,240.111298 
	C376.125366,240.698883 377.083344,241.432159 378.324982,242.285767 
	C383.814362,248.605270 389.020081,254.804459 394.258118,261.344910 
	C393.219269,261.150818 391.882660,260.862122 391.119415,260.040649 
	C385.719879,254.229340 380.419189,248.325394 375.153534,242.391953 
	C374.720825,241.904373 374.781525,240.978943 374.890198,240.111298 
z"/>
<path fill="#C6C6C6" opacity="1.000000" stroke="none" 
	d="
M378.435974,322.119934 
	C374.394470,318.397858 370.535461,314.352112 366.357056,309.819214 
	C365.964508,308.927490 365.891388,308.522919 365.818268,308.118378 
	C368.223999,308.702423 370.629730,309.286469 371.914001,309.598267 
	C372.825134,312.031830 373.336243,314.132965 374.361725,315.942627 
	C375.543610,318.028198 377.179688,319.856384 378.435974,322.119934 
z"/>
<path fill="#C6C6C6" opacity="1.000000" stroke="none" 
	d="
M410.779968,337.093384 
	C410.228973,339.498230 409.299774,341.894836 408.085388,344.476135 
	C408.667358,342.135590 409.534546,339.610382 410.779968,337.093384 
z"/>
<path fill="#C6C6C6" opacity="1.000000" stroke="none" 
	d="
M338.714111,276.952026 
	C337.373413,276.135498 336.148621,274.937561 334.906860,273.404663 
	C336.203278,274.236664 337.516663,275.403656 338.714111,276.952026 
z"/>
<path fill="#CECECE" opacity="1.000000" stroke="none" 
	d="
M356.917145,219.451447 
	C358.316254,220.481445 359.693420,221.873779 361.088379,223.602676 
	C359.702515,222.564087 358.298828,221.188919 356.917145,219.451447 
z"/>
<path fill="#C6C6C6" opacity="1.000000" stroke="none" 
	d="
M331.080811,268.555420 
	C330.021210,267.854340 328.979950,266.793793 327.925537,265.403046 
	C328.974640,266.113892 330.036896,267.154938 331.080811,268.555420 
z"/>
<path fill="#272727" opacity="1.000000" stroke="none" 
	d="
M361.993195,305.623779 
	C361.981049,305.260010 362.467102,305.206848 362.705627,305.153076 
	C363.406250,305.723358 363.868408,306.347351 364.396179,307.255951 
	C363.642975,307.022858 362.824158,306.505188 361.993195,305.623779 
z"/>
<path fill="#C6C6C6" opacity="1.000000" stroke="none" 
	d="
M394.390381,340.146545 
	C393.484375,339.847748 392.764709,339.223663 392.019928,338.301941 
	C392.855438,338.609955 393.716034,339.215607 394.390381,340.146545 
z"/>
<path fill="#CECECE" opacity="1.000000" stroke="none" 
	d="
M354.464905,216.887054 
	C355.364105,217.179489 356.113251,217.812683 356.886932,218.753693 
	C356.045929,218.450287 355.180359,217.839050 354.464905,216.887054 
z"/>
<path fill="#C6C6C6" opacity="1.000000" stroke="none" 
	d="
M333.666748,271.152954 
	C332.773987,270.863983 331.972473,270.215576 331.127228,269.252838 
	C331.974976,269.556854 332.866486,270.175171 333.666748,271.152954 
z"/>
<path fill="#C6C6C6" opacity="1.000000" stroke="none" 
	d="
M340.526825,279.053284 
	C339.843018,278.914307 339.300629,278.432220 338.709473,277.675232 
	C339.329865,277.836975 339.999054,278.273590 340.526825,279.053284 
z"/>
<path fill="#272727" opacity="1.000000" stroke="none" 
	d="
M365.595093,307.999451 
	C365.891388,308.522919 365.964508,308.927490 366.078125,309.642761 
	C365.496094,309.385376 364.873566,308.817291 364.353943,307.891968 
	C364.761841,307.649994 365.066895,307.765259 365.595093,307.999451 
z"/>
<path fill="#FDFDFD" opacity="1.000000" stroke="none" 
	d="
M461.906860,402.113953 
	C461.120728,405.034760 459.917786,407.949158 458.415009,411.070862 
	C458.015961,410.135773 457.916718,408.993408 457.861572,408.358429 
	C456.069061,407.899475 454.645966,407.535095 453.222839,407.170715 
	C454.360504,405.798676 455.270447,404.065826 456.703308,403.161407 
	C458.002838,402.341095 459.871979,402.423248 461.906860,402.113953 
z"/>
<path fill="#FDFDFD" opacity="1.000000" stroke="none" 
	d="
M318.345703,327.999420 
	C319.104919,325.503876 320.254639,323.007782 321.604797,320.250671 
	C323.079590,320.498199 324.353973,321.006714 325.628357,321.515198 
	C324.891449,322.786530 324.396637,324.327606 323.356506,325.261078 
	C322.049866,326.433807 320.296661,327.108948 318.345703,327.999420 
z"/>
<path fill="#FDFDFD" opacity="1.000000" stroke="none" 
	d="
M512.582642,288.010742 
	C511.519135,291.199829 510.078918,294.398956 508.387207,297.837158 
	C504.821808,292.833862 508.515259,290.427856 512.582642,288.010742 
z"/>
<path fill="#BEBEBE" opacity="1.000000" stroke="none" 
	d="
M353.269714,329.064453 
	C354.587219,329.890930 355.827820,331.070190 357.098267,332.580505 
	C355.816345,331.746735 354.504547,330.581970 353.269714,329.064453 
z"/>
<path fill="#000000" opacity="1.000000" stroke="none" 
	d="
M283.356567,210.037933 
	C282.974915,209.563400 282.963898,209.112915 282.969879,208.324814 
	C283.731995,208.001144 284.477142,208.015091 285.595825,208.011978 
	C285.848328,208.560822 285.727295,209.126724 285.408386,209.908081 
	C284.716034,210.103027 284.221588,210.082504 283.356567,210.037933 
z"/>
<path fill="#FDFDFD" opacity="1.000000" stroke="none" 
	d="
M341.987244,388.012268 
	C341.469330,387.776550 340.950714,387.549500 340.477814,387.250244 
	C340.427277,387.218262 340.643768,386.764435 340.736389,386.506317 
	C341.140869,386.805206 341.545349,387.104095 341.987000,387.688995 
	C342.024139,387.975006 341.999786,388.000061 341.987244,388.012268 
z"/>
<path fill="#000000" opacity="1.000000" stroke="none" 
	d="
M214.056427,367.953125 
	C214.214661,368.112366 214.326691,368.314331 214.438721,368.516235 
	C214.319473,368.476624 214.200226,368.437012 214.002777,368.242645 
	C213.924561,368.087891 214.010223,367.995789 214.056427,367.953125 
z"/>
<path fill="#272727" opacity="1.000000" stroke="none" 
	d="
M359.557831,305.464966 
	C359.592255,305.521698 359.523407,305.408234 359.557831,305.464966 
z"/>
</svg>